<?xml version="1.0" encoding="utf-8"?>
<svg xmlns="http://www.w3.org/2000/svg" style="margin: auto; background: none; display: block; shape-rendering: auto;" width="288" height="65" preserveAspectRatio="xMidYMid">
<style type="text/css">
  text {
    text-anchor: middle; font-size: 35px; opacity: 0;
  }
</style>
<g style="transform-origin:144px 32.5px;transform:scale(1)">
<g transform="translate(144,32.5)">
  <g transform="translate(0,0)"><g class="path" style="opacity: 1; transform-origin: -121.11px -0.568964px; animation: 2.5s linear -1.57826s infinite normal forwards running fade-c1e9a4ae-0600-4af7-a661-68487473a99d;"><path d="M29.58-26.18L29.58-26.18L29.58-26.18Q27.06-23.91 23.57-18.34L23.57-18.34L23.57-18.34Q20.09-12.78 18.08-8.82L18.08-8.82L18.08-8.82Q16.07-4.87 14.88-2.28L14.88-2.28L14.88-2.28Q13.23 1.40 12.39 1.40L12.39 1.40L12.39 1.40Q11.83 1.40 11.83-0.14L11.83-0.14L11.83-0.14Q11.83-1.26 12.29-2.84L12.29-2.84L12.29-2.84Q12.74-4.41 13.23-5.43L13.23-5.43L13.69-6.44L13.69-6.44Q14.88-8.93 14.88-11.73L14.88-11.73L14.88-11.73Q14.88-15.54 12.99-18.20L12.99-18.20L12.99-18.20Q9.59-11.06 5.57-4.55L5.57-4.55L5.57-4.55Q5.18-3.92 4.69-3.19L4.69-3.19L4.69-3.19Q4.20-2.45 3.36-1.31L3.36-1.31L3.36-1.31Q2.52-0.18 1.72 0.56L1.72 0.56L1.72 0.56Q0.91 1.30 0.35 1.30L0.35 1.30L0.35 1.30Q0.04 1.30 0.04 0.91L0.04 0.91L0.07 0.60L0.07 0.60Q0.21-0.74 4.48-8.23L4.48-8.23L11.13-19.99L11.13-19.99Q9.80-20.83 8.16-20.83L8.16-20.83L8.16-20.83Q6.55-20.83 5.62-19.85L5.62-19.85L5.62-19.85Q4.69-18.87 4.69-17.22L4.69-17.22L4.69-17.22Q4.69-16.52 4.87-15.89L4.87-15.89L4.87-15.89Q4.97-15.58 4.97-15.40L4.97-15.40L4.97-15.40Q4.97-15.09 4.73-15.09L4.73-15.09L4.73-15.09Q4.13-15.09 3.36-16.59L3.36-16.59L3.36-16.59Q2.59-18.10 2.59-19.15L2.59-19.15L2.59-19.15Q2.59-20.62 3.62-21.44L3.62-21.44L3.62-21.44Q4.66-22.26 6.37-22.26L6.37-22.26L6.37-22.26Q9.31-22.26 11.59-20.76L11.59-20.76L15.05-26.88L15.05-26.88Q15.40-27.23 15.61-27.23L15.61-27.23L15.61-27.23Q15.96-27.23 15.96-26.60L15.96-26.60L15.96-26.60Q15.96-24.75 13.41-19.15L13.41-19.15L13.41-19.15Q16.03-16.03 16.03-10.92L16.03-10.92L16.03-10.92Q16.10-10.57 16.21-10.57L16.21-10.57L16.21-10.57Q16.31-10.57 16.42-10.85L16.42-10.85L16.42-10.85Q18.52-14.67 20.02-17.71L20.02-17.71L20.02-17.71Q22.05-21.81 24.48-24.38L24.48-24.38L24.48-24.38Q26.92-26.95 29.40-26.95L29.40-26.95L29.40-26.95Q29.93-26.95 29.93-26.74L29.93-26.74L29.93-26.74Q29.93-26.64 29.58-26.18" fill="#8e3aa5" stroke="none" stroke-width="none" transform="translate(-136.09500122070312,12.346035700259002)" style="fill: rgb(142, 58, 165);"></path></g><g class="path" style="opacity: 1; transform-origin: -111.105px 5.04604px; animation: 2.5s linear -1.50652s infinite normal forwards running fade-c1e9a4ae-0600-4af7-a661-68487473a99d;"><path d="M27.79-11.87L27.79-11.87L27.79-11.87Q28.21-12.74 28.21-13.41L28.21-13.41L28.21-13.41Q28.21-13.97 27.86-13.97L27.86-13.97L27.86-13.97Q27.65-13.97 27.39-13.84L27.39-13.84L27.39-13.84Q27.13-13.72 26.99-13.58L26.99-13.58L26.81-13.44L26.81-13.44Q25.73-12.50 24.10-9.99L24.10-9.99L24.10-9.99Q22.47-7.49 22.47-6.79L22.47-6.79L22.47-6.79Q22.47-6.65 22.54-6.65L22.54-6.65L22.54-6.65Q22.75-6.65 23.47-7.00L23.47-7.00L23.47-7.00Q24.19-7.35 25.53-8.65L25.53-8.65L25.53-8.65Q26.88-9.94 27.79-11.87zM26.22-3.85L26.22-3.85L26.22-3.85Q28.07-5.57 31.54-9.52L31.54-9.52L31.54-9.52Q31.64-9.63 31.71-9.63L31.71-9.63L31.71-9.63Q31.78-9.63 31.78-9.49L31.78-9.49L31.78-9.49Q31.78-8.82 31.26-8.19L31.26-8.19L31.26-8.19Q28.67-5.32 26.67-3.40L26.67-3.40L26.67-3.40Q25.20-1.93 23.17-0.58L23.17-0.58L23.17-0.58Q21.14 0.77 19.81 0.77L19.81 0.77L19.81 0.77Q18.20 0.77 18.20-1.47L18.20-1.47L18.20-1.47Q18.20-5.18 20.95-9.24L20.95-9.24L20.95-9.24Q23.70-13.30 27.30-14.74L27.30-14.74L27.30-14.74Q28.81-15.37 30.03-15.37L30.03-15.37L30.03-15.37Q31.40-15.37 31.40-14.28L31.40-14.28L31.40-14.28Q31.40-12.25 28.53-9.63L28.53-9.63L28.53-9.63Q25.66-7.00 22.09-5.64L22.09-5.64L22.09-5.64Q21.95-5.60 21.84-5.39L21.84-5.39L21.84-5.39Q21.32-3.96 21.32-2.84L21.32-2.84L21.32-2.84Q21.32-1.58 22.26-1.58L22.26-1.58L22.26-1.58Q23.77-1.58 26.22-3.85" fill="#8e3aa5" stroke="none" stroke-width="none" transform="translate(-136.09500122070312,12.346035700259002)" style="fill: rgb(142, 58, 165);"></path></g><g class="path" style="opacity: 1; transform-origin: -97.035px -3.38396px; animation: 2.5s linear -1.43478s infinite normal forwards running fade-c1e9a4ae-0600-4af7-a661-68487473a99d;"><path d="M38.40-17.05L38.40-17.05L38.40-17.05Q40.88-18.80 42.86-21.02L42.86-21.02L42.86-21.02Q44.84-23.24 45.87-25.11L45.87-25.11L45.87-25.11Q46.90-26.99 47.43-28.35L47.43-28.35L47.43-28.35Q47.95-29.72 47.95-30.31L47.95-30.31L47.95-30.31Q47.95-30.66 47.71-30.66L47.71-30.66L47.71-30.66Q47.22-30.66 46.52-29.96L46.52-29.96L46.52-29.96Q45.19-28.63 43.51-26.11L43.51-26.11L43.51-26.11Q41.83-23.59 40.79-21.79L40.79-21.79L40.79-21.79Q39.76-19.99 38.12-16.98L38.12-16.98L38.12-16.98Q38.26-16.98 38.40-17.05zM34.65-5.29L34.65-5.29L34.65-5.29Q36.12-6.76 38.54-9.52L38.54-9.52L38.54-9.52Q38.64-9.63 38.71-9.63L38.71-9.63L38.71-9.63Q38.78-9.63 38.78-9.49L38.78-9.49L38.78-9.49Q38.78-8.82 38.26-8.19L38.26-8.19L38.26-8.19Q35.67-5.32 33.67-3.40L33.67-3.40L33.67-3.40Q29.30 0.74 28.11 0.74L28.11 0.74L28.11 0.74Q27.58 0.74 27.58 0L27.58 0L27.58 0Q27.58-0.39 27.67-0.84L27.67-0.84L27.67-0.84Q27.76-1.30 27.97-1.84L27.97-1.84L27.97-1.84Q28.18-2.38 28.33-2.75L28.33-2.75L28.33-2.75Q28.49-3.12 28.79-3.80L28.79-3.80L28.79-3.80Q29.09-4.48 29.19-4.73L29.19-4.73L29.19-4.73Q30.17-6.93 35.21-16.35L35.21-16.35L35.21-16.35Q42.11-28.91 47.88-31.78L47.88-31.78L47.88-31.78Q48.72-32.20 49.56-32.20L49.56-32.20L49.56-32.20Q50.54-32.20 50.54-31.29L50.54-31.29L50.54-31.29Q50.54-29.19 49.11-26.69L49.11-26.69L49.11-26.69Q47.67-24.19 45.61-22.09L45.61-22.09L45.61-22.09Q43.54-19.99 41.56-18.41L41.56-18.41L41.56-18.41Q39.59-16.84 38.15-16.03L38.15-16.03L38.15-16.03Q37.94-15.96 37.77-15.72L37.77-15.72L37.77-15.72Q36.23-13.23 34.76-10.38L34.76-10.38L34.76-10.38Q33.29-7.53 32.55-5.88L32.55-5.88L31.85-4.27L31.85-4.27Q31.68-3.75 31.68-3.57L31.68-3.57L31.68-3.57Q31.68-3.26 31.92-3.26L31.92-3.26L31.92-3.26Q32.62-3.26 34.65-5.29" fill="#8e3aa5" stroke="none" stroke-width="none" transform="translate(-136.09500122070312,12.346035700259002)" style="fill: rgb(142, 58, 165);"></path></g><g class="path" style="opacity: 1; transform-origin: -88.945px -3.38396px; animation: 2.5s linear -1.36304s infinite normal forwards running fade-c1e9a4ae-0600-4af7-a661-68487473a99d;"><path d="M46.48-17.05L46.48-17.05L46.48-17.05Q48.97-18.80 50.94-21.02L50.94-21.02L50.94-21.02Q52.92-23.24 53.95-25.11L53.95-25.11L53.95-25.11Q54.99-26.99 55.51-28.35L55.51-28.35L55.51-28.35Q56.04-29.72 56.04-30.31L56.04-30.31L56.04-30.31Q56.04-30.66 55.79-30.66L55.79-30.66L55.79-30.66Q55.30-30.66 54.60-29.96L54.60-29.96L54.60-29.96Q53.27-28.63 51.59-26.11L51.59-26.11L51.59-26.11Q49.91-23.59 48.88-21.79L48.88-21.79L48.88-21.79Q47.85-19.99 46.20-16.98L46.20-16.98L46.20-16.98Q46.34-16.98 46.48-17.05zM42.74-5.29L42.74-5.29L42.74-5.29Q44.21-6.76 46.62-9.52L46.62-9.52L46.62-9.52Q46.73-9.63 46.80-9.63L46.80-9.63L46.80-9.63Q46.87-9.63 46.87-9.49L46.87-9.49L46.87-9.49Q46.87-8.82 46.34-8.19L46.34-8.19L46.34-8.19Q43.75-5.32 41.76-3.40L41.76-3.40L41.76-3.40Q37.38 0.74 36.19 0.74L36.19 0.74L36.19 0.74Q35.67 0.74 35.67 0L35.67 0L35.67 0Q35.67-0.39 35.75-0.84L35.75-0.84L35.75-0.84Q35.84-1.30 36.05-1.84L36.05-1.84L36.05-1.84Q36.26-2.38 36.42-2.75L36.42-2.75L36.42-2.75Q36.58-3.12 36.87-3.80L36.87-3.80L36.87-3.80Q37.17-4.48 37.28-4.73L37.28-4.73L37.28-4.73Q38.26-6.93 43.30-16.35L43.30-16.35L43.30-16.35Q50.19-28.91 55.97-31.78L55.97-31.78L55.97-31.78Q56.81-32.20 57.65-32.20L57.65-32.20L57.65-32.20Q58.63-32.20 58.63-31.29L58.63-31.29L58.63-31.29Q58.63-29.19 57.19-26.69L57.19-26.69L57.19-26.69Q55.76-24.19 53.69-22.09L53.69-22.09L53.69-22.09Q51.63-19.99 49.65-18.41L49.65-18.41L49.65-18.41Q47.67-16.84 46.24-16.03L46.24-16.03L46.24-16.03Q46.03-15.96 45.85-15.72L45.85-15.72L45.85-15.72Q44.31-13.23 42.84-10.38L42.84-10.38L42.84-10.38Q41.37-7.53 40.64-5.88L40.64-5.88L39.94-4.27L39.94-4.27Q39.76-3.75 39.76-3.57L39.76-3.57L39.76-3.57Q39.76-3.26 40.01-3.26L40.01-3.26L40.01-3.26Q40.71-3.26 42.74-5.29" fill="#8e3aa5" stroke="none" stroke-width="none" transform="translate(-136.09500122070312,12.346035700259002)" style="fill: rgb(142, 58, 165);"></path></g><g class="path" style="opacity: 1; transform-origin: -84.905px 4.82104px; animation: 2.5s linear -1.2913s infinite normal forwards running fade-c1e9a4ae-0600-4af7-a661-68487473a99d;"><path d="M58.59-12.32L58.59-12.32L58.59-12.32Q58.91-12.25 58.91-12.11L58.91-12.11L58.91-12.11Q58.91-11.90 58.63-11.62L58.63-11.62L58.63-11.62Q58.24-11.24 57.49-10.61L57.49-10.61L57.49-10.61Q56.74-9.98 56.60-9.84L56.60-9.84L56.11-9.17L56.11-9.17Q55.37-7.11 53.85-4.88L53.85-4.88L53.85-4.88Q52.33-2.66 50.14-0.98L50.14-0.98L50.14-0.98Q47.95 0.70 45.96 0.70L45.96 0.70L45.96 0.70Q43.47 0.70 43.47-2.35L43.47-2.35L43.47-2.35Q43.47-5.04 45.22-8.17L45.22-8.17L45.22-8.17Q46.97-11.31 49.75-13.53L49.75-13.53L49.75-13.53Q52.54-15.75 55.23-15.75L55.23-15.75L55.23-15.75Q57.19-15.75 57.19-14.21L57.19-14.21L57.19-14.21Q57.19-13.37 56.35-11.94L56.35-11.94L56.35-11.94Q56.32-11.90 56.32-11.83L56.32-11.83L56.32-11.83Q56.32-11.76 56.39-11.76L56.39-11.76L56.39-11.76Q57.68-12.29 58.59-12.32zM55.27-11.48L55.27-11.48L55.27-11.48Q55.55-12.71 55.55-13.37L55.55-13.37L55.55-13.37Q55.55-14.84 54.57-14.84L54.57-14.84L54.57-14.84Q53.20-14.84 51.17-12.32L51.17-12.32L51.17-12.32Q49.14-9.80 47.69-6.65L47.69-6.65L47.69-6.65Q46.24-3.50 46.24-1.68L46.24-1.68L46.24-1.68Q46.24-0.35 47.18-0.35L47.18-0.35L47.18-0.35Q48.65-0.35 50.70-3.29L50.70-3.29L50.70-3.29Q52.75-6.23 53.17-9.21L53.17-9.21L53.17-9.21Q53.13-9.28 53.13-9.42L53.13-9.42L53.13-9.42Q53.13-10.43 54.95-11.24L54.95-11.24L54.95-11.24Q55.23-11.34 55.27-11.48" fill="#8e3aa5" stroke="none" stroke-width="none" transform="translate(-136.09500122070312,12.346035700259002)" style="fill: rgb(142, 58, 165);"></path></g><g class="path" style="opacity: 1; transform-origin: -79.395px 12.086px; animation: 2.5s linear -1.21957s infinite normal forwards running fade-c1e9a4ae-0600-4af7-a661-68487473a99d;"><path d="M54.71 3.12L54.71 3.12L54.71 3.12Q54.50 3.26 54.32 3.26L54.32 3.26L54.32 3.26Q54.11 3.26 54.11 3.08L54.11 3.08L54.11 3.08Q54.11 2.87 54.29 2.59L54.29 2.59L54.29 2.59Q54.32 2.56 54.67 1.96L54.67 1.96L54.67 1.96Q55.02 1.37 55.16 1.09L55.16 1.09L55.16 1.09Q55.30 0.81 55.49 0.28L55.49 0.28L55.49 0.28Q55.69-0.25 55.76-0.67L55.76-0.67L55.76-0.67Q55.76-1.86 56.49-2.82L56.49-2.82L56.49-2.82Q57.23-3.78 58.17-3.78L58.17-3.78L58.17-3.78Q59.29-3.78 59.29-2.77L59.29-2.77L59.29-2.77Q59.29-1.61 57.65 0.35L57.65 0.35L57.65 0.35Q56.00 2.31 54.71 3.12" fill="#8e3aa5" stroke="none" stroke-width="none" transform="translate(-136.09500122070312,12.346035700259002)" style="fill: rgb(142, 58, 165);"></path></g><g class="path" style="opacity: 1; transform-origin: -53.825px -0.288964px; animation: 2.5s linear -1.14783s infinite normal forwards running fade-c1e9a4ae-0600-4af7-a661-68487473a99d;"><path d="M98.46-25.97L98.46-25.97L98.46-25.97Q96.64-23.35 94.40-19.32L94.40-19.32L94.40-19.32Q92.16-15.30 90.83-12.57L90.83-12.57L89.50-9.84L89.50-9.84Q85.89-2.35 85.89 0.91L85.89 0.91L85.89 0.91Q85.89 0.98 85.91 1.19L85.91 1.19L85.91 1.19Q85.93 1.40 85.93 1.54L85.93 1.54L85.93 1.54Q85.93 2.10 85.61 2.10L85.61 2.10L85.61 2.10Q85.02 2.10 84.31 1.07L84.31 1.07L84.31 1.07Q83.62 0.04 83.62-1.68L83.62-1.68L83.62-1.68Q83.62-3.26 84.37-5.53L84.37-5.53L84.37-5.53Q85.12-7.81 86.59-10.73L86.59-10.73L86.59-10.73Q88.06-13.65 89.06-15.44L89.06-15.44L89.06-15.44Q90.06-17.22 91.70-20.09L91.70-20.09L91.70-20.09Q91.81-20.30 91.81-20.41L91.81-20.41L91.81-20.41Q91.74-20.58 91.63-20.58L91.63-20.58L91.63-20.58Q91.42-20.58 91.21-20.41L91.21-20.41L91.21-20.41Q89.15-18.73 85.78-14.70L85.78-14.70L85.78-14.70Q82.43-10.68 80.12-7.49L80.12-7.49L77.77-4.31L77.77-4.31Q77.21-3.47 76.86-3.47L76.86-3.47L76.86-3.47Q76.76-3.47 76.69-3.54L76.69-3.54L76.69-3.54Q76.62-3.61 76.58-3.73L76.58-3.73L76.58-3.73Q76.55-3.85 76.53-3.96L76.53-3.96L76.53-3.96Q76.51-4.06 76.51-4.13L76.51-4.13L76.51-4.20L76.51-4.20Q76.76-6.37 77.23-10.26L77.23-10.26L77.23-10.26Q77.70-14.14 78.02-16.80L78.02-16.80L78.02-16.80Q78.33-19.46 78.33-19.53L78.33-19.53L78.33-19.53Q78.33-19.88 78.19-19.88L78.19-19.88L78.19-19.88Q78.12-19.88 78.00-19.78L78.00-19.78L78.00-19.78Q77.88-19.67 77.81-19.57L77.81-19.57L77.73-19.46L77.73-19.46Q76.23-17.22 74.52-13.67L74.52-13.67L74.52-13.67Q72.80-10.12 71.75-7.39L71.75-7.39L71.75-7.39Q70.98-5.43 70.17-3.80L70.17-3.80L70.17-3.80Q69.37-2.17 68.76-1.28L68.76-1.28L68.76-1.28Q68.15-0.39 67.64 0.23L67.64 0.23L67.64 0.23Q67.13 0.84 66.85 1.05L66.85 1.05L66.57 1.26L66.57 1.26Q66.19 1.58 65.98 1.58L65.98 1.58L65.98 1.58Q65.77 1.58 65.77 1.23L65.77 1.23L65.80 0.91L65.80 0.91Q66.15-0.95 68.86-6.16L68.86-6.16L68.86-6.16Q71.58-11.38 74.13-15.68L74.13-15.68L76.69-19.95L78.61-23.28L78.61-23.28Q80.05-27.37 80.81-27.37L80.81-27.37L80.81-27.37Q81.34-27.37 81.34-25.59L81.34-25.59L81.34-25.59Q80.26-12.57 80.26-10.71L80.26-10.71L80.26-10.71Q80.26-10.19 80.47-10.19L80.47-10.19L80.47-10.19Q80.68-10.19 80.96-10.57L80.96-10.57L80.96-10.57Q81.41-11.17 82.22-12.18L82.22-12.18L82.22-12.18Q83.02-13.20 85.30-15.82L85.30-15.82L85.30-15.82Q87.57-18.45 89.58-20.55L89.58-20.55L89.58-20.55Q91.59-22.65 93.98-24.57L93.98-24.57L93.98-24.57Q96.36-26.50 97.90-26.92L97.90-26.92L97.90-26.92Q98.25-26.99 98.35-26.99L98.35-26.99L98.35-26.99Q98.77-26.99 98.77-26.67L98.77-26.67L98.77-26.67Q98.77-26.39 98.46-25.97" fill="#8e3aa5" stroke="none" stroke-width="none" transform="translate(-136.09500122070312,12.346035700259002)" style="fill: rgb(142, 58, 165);"></path></g><g class="path" style="opacity: 1; transform-origin: -42.17px 14.851px; animation: 2.5s linear -1.07609s infinite normal forwards running fade-c1e9a4ae-0600-4af7-a661-68487473a99d;"><path d="M96.71-4.97L96.71-4.97L98.18-7.84L98.18-7.84Q98.18-7.95 98.11-7.95L98.11-7.95L98.11-7.95Q98.04-7.95 97.93-7.84L97.93-7.84L97.93-7.84Q96.64-6.34 95.20-4.88L95.20-4.88L95.20-4.88Q93.77-3.43 93.00-2.73L93.00-2.73L92.23-2.03L92.23-2.03Q89.60 0.46 88.52 0.46L88.52 0.46L88.52 0.46Q88.03 0.46 88.03-0.18L88.03-0.18L88.03-0.18Q88.03-0.88 88.59-2.29L88.59-2.29L88.59-2.29Q89.15-3.71 89.71-4.76L89.71-4.76L90.27-5.85L90.27-5.85Q93.21-11.34 94.61-13.20L94.61-13.20L94.61-13.20Q95.31-14.11 96.32-14.72L96.32-14.72L96.32-14.72Q97.34-15.33 97.90-15.33L97.90-15.33L97.90-15.33Q98.25-15.33 98.25-15.09L98.25-15.09L98.25-15.09Q98.25-14.95 98.11-14.70L98.11-14.70L98.11-14.70Q98.04-14.56 96.67-12.37L96.67-12.37L96.67-12.37Q95.31-10.19 94.47-8.61L94.47-8.61L94.47-8.61Q92.16-4.38 92.16-3.75L92.16-3.75L92.16-3.75Q92.16-3.50 92.37-3.50L92.37-3.50L92.37-3.50Q92.68-3.50 93.45-4.13L93.45-4.13L93.45-4.13Q95.73-6.09 98.46-9.42L98.46-9.42L98.46-9.42Q99.96-11.03 101.61-13.62L101.61-13.62L101.61-13.62Q102.06-14.32 102.95-14.82L102.95-14.82L102.95-14.82Q103.85-15.33 104.58-15.33L104.58-15.33L104.58-15.33Q104.90-15.33 104.90-15.05L104.90-15.05L104.62-14.39L104.62-14.39Q104.13-13.51 102.43-10.55L102.43-10.55L102.43-10.55Q100.73-7.60 100.52-7.21L100.52-7.21L100.52-7.21Q100.24-6.69 99.24-4.95L99.24-4.95L99.24-4.95Q98.25-3.22 97.83-2.49L97.83-2.49L97.83-2.49Q100.03-4.27 101.47-5.57L101.47-5.57L101.47-5.57Q103.01-7.18 105.07-9.52L105.07-9.52L105.07-9.52Q105.18-9.63 105.25-9.63L105.25-9.63L105.25-9.63Q105.32-9.63 105.32-9.49L105.32-9.49L105.32-9.49Q105.32-8.82 104.79-8.19L104.79-8.19L104.79-8.19Q103.25-6.51 102.13-5.32L102.13-5.32L102.13-5.32Q100.66-3.78 96.88-0.84L96.88-0.84L95.97 0.84L95.97 0.84Q89.22 13.27 86.66 17.01L86.66 17.01L86.66 17.01Q86.42 17.40 86.03 17.94L86.03 17.94L86.03 17.94Q85.65 18.48 84.77 19.41L84.77 19.41L84.77 19.41Q83.90 20.34 83.37 20.34L83.37 20.34L83.37 20.34Q82.53 20.34 82.53 17.92L82.53 17.92L82.53 17.92Q82.53 14.35 85.09 10.15L85.09 10.15L85.09 10.15Q87.85 5.64 93.63 0.88L93.63 0.88L93.63 0.88Q94.78-1.23 96.71-4.97zM85.96 10.08L85.96 10.08L85.96 10.08Q85.68 10.50 85.30 11.18L85.30 11.18L85.30 11.18Q84.91 11.87 84.25 13.53L84.25 13.53L84.25 13.53Q83.58 15.19 83.58 16.31L83.58 16.31L83.58 16.31Q83.58 16.91 83.79 16.91L83.79 16.91L83.79 16.91Q83.97 16.91 84.32 16.57L84.32 16.57L84.32 16.57Q84.67 16.24 84.91 15.89L84.91 15.89L85.16 15.54L85.16 15.54Q88.62 10.12 92.68 2.59L92.68 2.59L92.68 2.59Q88.13 6.58 85.96 10.08" fill="#8e3aa5" stroke="none" stroke-width="none" transform="translate(-136.09500122070312,12.346035700259002)" style="fill: rgb(142, 58, 165);"></path></g><g class="path" style="opacity: 1; transform-origin: -15.4px -0.533963px; animation: 2.5s linear -1.00435s infinite normal forwards running fade-c1e9a4ae-0600-4af7-a661-68487473a99d;"><path d="M131.50-21.25L131.50-21.25L131.50-21.25Q128.00-16.63 124.95-11.17L124.95-11.17L124.95-11.17Q121.91-5.71 120.61-2.56L120.61-2.56L119.31 0.60L119.31 0.60Q118.75 1.79 118.34 1.79L118.34 1.79L118.34 1.79Q118.13 1.79 117.97 1.54L117.97 1.54L117.97 1.54Q117.81 1.30 117.74 1.05L117.74 1.05L117.67 0.81L117.67 0.81Q117.22-2.03 117.22-5.15L117.22-5.15L117.22-5.15Q117.22-7.63 117.56-12.37L117.56-12.37L117.56-12.37Q117.92-17.12 117.92-19.29L117.92-19.29L117.92-19.29Q117.92-19.64 117.78-19.64L117.78-19.64L117.78-19.64Q117.70-19.64 117.58-19.53L117.58-19.53L117.58-19.53Q117.46-19.43 117.39-19.32L117.39-19.32L117.32-19.22L117.32-19.22Q115.95-17.26 114.19-13.63L114.19-13.63L114.19-13.63Q112.42-10.01 111.41-7.39L111.41-7.39L111.41-7.39Q110.64-5.39 109.81-3.78L109.81-3.78L109.81-3.78Q108.99-2.17 108.36-1.26L108.36-1.26L108.36-1.26Q107.73-0.35 107.20 0.26L107.20 0.26L107.20 0.26Q106.68 0.88 106.40 1.09L106.40 1.09L106.12 1.30L106.12 1.30Q105.70 1.61 105.53 1.61L105.53 1.61L105.53 1.61Q105.31 1.61 105.31 1.26L105.31 1.26L105.31 1.26Q105.31-2.03 115.43-18.62L115.43-18.62L115.43-18.62Q116.27-19.99 116.95-21.14L116.95-21.14L116.95-21.14Q117.64-22.30 117.88-22.75L117.88-22.75L118.13-23.24L118.13-23.24Q119.59-27.34 120.37-27.34L120.37-27.34L120.37-27.34Q120.89-27.34 120.89-25.59L120.89-25.59L120.89-25.59Q121.14-17.15 121.14-11.41L121.14-11.41L121.14-11.41Q121.14-8.93 121.10-8.02L121.10-8.02L121.10-8.02Q121.17-7.46 121.42-7.46L121.42-7.46L121.42-7.46Q121.70-7.46 122.12-8.26L122.12-8.26L122.12-8.26Q125.86-15.40 126.84-17.50L126.84-17.50L126.84-17.50Q131.56-27.55 135.59-27.55L135.59-27.55L135.59-27.55Q136.08-27.55 136.08-27.27L136.08-27.27L136.08-27.27Q136.08-27.06 135.73-26.71L135.73-26.71L135.73-26.71Q134.82-25.66 131.50-21.25" fill="#8e3aa5" stroke="none" stroke-width="none" transform="translate(-136.09500122070312,12.346035700259002)" style="fill: rgb(142, 58, 165);"></path></g><g class="path" style="opacity: 1; transform-origin: -4.48px 4.87604px; animation: 2.5s linear -0.932609s infinite normal forwards running fade-c1e9a4ae-0600-4af7-a661-68487473a99d;"><path d="M133.81-2.21L133.81-2.21L133.81-2.21Q130.90 0.46 129.81 0.46L129.81 0.46L129.81 0.46Q129.33 0.46 129.33-0.11L129.33-0.11L129.33-0.11Q129.33-0.81 129.94-2.24L129.94-2.24L129.94-2.24Q130.55-3.68 131.18-4.76L131.18-4.76L131.81-5.85L131.81-5.85Q131.95-6.09 131.95-6.16L131.95-6.16L131.95-6.16Q131.95-6.23 131.88-6.23L131.88-6.23L131.88-6.23Q131.74-6.23 131.36-5.85L131.36-5.85L131.36-5.85Q130.31-4.69 128.96-3.38L128.96-3.38L128.96-3.38Q127.61-2.07 126.77-1.33L126.77-1.33L125.97-0.63L125.97-0.63Q124.60 0.42 123.87 0.42L123.87 0.42L123.87 0.42Q123.09 0.42 123.09-0.77L123.09-0.77L123.09-0.77Q123.09-1.37 123.43-2.59L123.43-2.59L123.43-2.59Q123.76-3.82 123.94-4.24L123.94-4.24L123.94-4.24Q124.74-6.20 125.95-8.05L125.95-8.05L125.95-8.05Q127.16-9.91 128.80-11.60L128.80-11.60L128.80-11.60Q130.44-13.30 132.63-14.35L132.63-14.35L132.63-14.35Q134.82-15.40 137.17-15.40L137.17-15.40L137.17-15.40Q139.13-15.40 139.13-14.81L139.13-14.81L139.13-14.81Q139.13-14.46 138.25-14.46L138.25-14.46L138.25-14.46Q135.03-14.46 132.21-11.71L132.21-11.71L132.21-11.71Q129.40-8.96 127.65-5.39L127.65-5.39L127.65-5.39Q127.16-4.41 127.16-3.75L127.16-3.75L127.16-3.75Q127.16-3.36 127.40-3.36L127.40-3.36L127.40-3.36Q127.82-3.36 128.49-3.96L128.49-3.96L128.49-3.96Q128.91-4.34 129.62-4.97L129.62-4.97L129.62-4.97Q130.34-5.60 131.95-7.39L131.95-7.39L131.95-7.39Q133.56-9.17 134.50-10.71L134.50-10.71L134.50-10.71Q134.65-10.99 134.94-11.38L134.94-11.38L134.94-11.38Q135.24-11.76 136.08-12.41L136.08-12.41L136.08-12.41Q136.92-13.06 137.76-13.06L137.76-13.06L137.76-13.06Q138.22-13.06 138.22-12.81L138.22-12.81L138.22-12.81Q138.22-12.74 138.11-12.57L138.11-12.57L138.11-12.57Q137.97-12.29 137.32-11.17L137.32-11.17L137.32-11.17Q136.68-10.05 136.12-9.05L136.12-9.05L136.12-9.05Q135.56-8.05 134.93-6.88L134.93-6.88L134.93-6.88Q134.30-5.71 133.93-4.87L133.93-4.87L133.93-4.87Q133.56-4.03 133.56-3.75L133.56-3.75L133.56-3.75Q133.56-3.54 133.74-3.54L133.74-3.54L133.74-3.54Q134.26-3.54 136.29-5.57L136.29-5.57L136.29-5.57Q137.83-7.18 139.90-9.52L139.90-9.52L139.90-9.52Q140-9.63 140.07-9.63L140.07-9.63L140.07-9.63Q140.14-9.63 140.14-9.49L140.14-9.49L140.14-9.49Q140.14-8.82 139.62-8.19L139.62-8.19L139.62-8.19Q136.19-4.38 133.81-2.21" fill="#8e3aa5" stroke="none" stroke-width="none" transform="translate(-136.09500122070312,12.346035700259002)" style="fill: rgb(142, 58, 165);"></path></g><g class="path" style="opacity: 1; transform-origin: 11.535px 4.92604px; animation: 2.5s linear -0.86087s infinite normal forwards running fade-c1e9a4ae-0600-4af7-a661-68487473a99d;"><path d="M156.31-5.29L156.31-5.29L156.31-5.29Q157.78-6.76 160.19-9.52L160.19-9.52L160.19-9.52Q160.30-9.63 160.37-9.63L160.37-9.63L160.37-9.63Q160.44-9.63 160.44-9.49L160.44-9.49L160.44-9.49Q160.44-8.82 159.91-8.19L159.91-8.19L159.91-8.19Q157.32-5.32 155.33-3.40L155.33-3.40L155.33-3.40Q151.20 0.46 149.91 0.46L149.91 0.46L149.91 0.46Q149.34 0.46 149.34-0.21L149.34-0.21L149.34-0.21Q149.34-0.88 150.06-2.42L150.06-2.42L150.06-2.42Q150.78-3.96 151.50-5.22L151.50-5.22L151.50-5.22Q152.22-6.48 153.32-8.29L153.32-8.29L153.32-8.29Q154.42-10.12 154.49-10.26L154.49-10.26L154.49-10.26Q155.12-11.27 155.12-11.55L155.12-11.55L155.12-11.55Q155.12-11.73 154.94-11.73L154.94-11.73L154.45-11.55L154.45-11.55Q152.84-10.40 150.60-7.96L150.60-7.96L150.60-7.96Q148.37-5.53 146.93-3.71L146.93-3.71L145.50-1.86L145.50-1.86Q143.88 0.46 142.34 0.46L142.34 0.46L142.34 0.46Q141.89 0.46 141.89 0.18L141.89 0.18L141.89 0.18Q141.89-0.14 142.56-1.49L142.56-1.49L142.56-1.49Q143.22-2.84 143.88-4.03L143.88-4.03L144.55-5.22L144.55-5.22Q144.79-5.71 145.76-7.33L145.76-7.33L145.76-7.33Q146.72-8.96 147.37-10.13L147.37-10.13L147.37-10.13Q148.01-11.31 148.01-11.59L148.01-11.59L148.01-11.59Q148.01-11.76 147.88-11.76L147.88-11.76L147.38-11.55L147.38-11.55Q145.74-10.40 143.50-7.96L143.50-7.96L143.50-7.96Q141.26-5.53 139.86-3.71L139.86-3.71L138.42-1.86L138.42-1.86Q136.78 0.42 135.28 0.42L135.28 0.42L135.28 0.42Q134.82 0.42 134.82 0.18L134.82 0.18L134.82 0.18Q134.82-0.14 135.48-1.49L135.48-1.49L135.48-1.49Q136.15-2.84 136.81-4.03L136.81-4.03L137.48-5.22L140.88-11.24L140.88-11.24Q141.72-12.81 142.91-14.05L142.91-14.05L142.91-14.05Q144.09-15.30 145.39-15.30L145.39-15.30L145.39-15.30Q145.67-15.30 145.67-15.05L145.67-15.05L145.67-15.05Q145.67-14.84 145.27-14.16L145.27-14.16L145.27-14.16Q144.86-13.48 144.11-12.27L144.11-12.27L144.11-12.27Q143.36-11.06 142.83-10.05L142.83-10.05L142.83-10.05Q142.52-9.45 142.08-8.70L142.08-8.70L142.08-8.70Q141.64-7.95 141.36-7.44L141.36-7.44L141.36-7.44Q141.08-6.93 140.98-6.72L140.98-6.72L140.98-6.72Q140.88-6.51 140.88-6.41L140.88-6.41L140.88-6.41Q140.88-6.34 140.94-6.34L140.94-6.34L140.94-6.34Q141.05-6.34 141.29-6.58L141.29-6.58L141.29-6.58Q141.96-7.35 143.03-8.51L143.03-8.51L143.03-8.51Q144.09-9.66 146.65-11.99L146.65-11.99L146.65-11.99Q149.20-14.32 150.85-15.12L150.85-15.12L150.85-15.12Q151.20-15.30 151.55-15.30L151.55-15.30L151.55-15.30Q152.04-15.30 152.04-14.81L152.04-14.81L152.04-14.81Q152.04-13.90 149.97-10.08L149.97-10.08L149.97-10.08Q149.80-9.77 149.26-8.86L149.26-8.86L149.26-8.86Q148.72-7.95 148.35-7.28L148.35-7.28L148.35-7.28Q147.98-6.62 147.98-6.44L147.98-6.44L147.98-6.44Q147.98-6.34 148.05-6.34L148.05-6.34L148.05-6.34Q148.16-6.34 148.40-6.58L148.40-6.58L148.40-6.58Q149.06-7.35 150.13-8.51L150.13-8.51L150.13-8.51Q151.20-9.66 153.74-11.99L153.74-11.99L153.74-11.99Q156.28-14.32 157.92-15.12L157.92-15.12L157.92-15.12Q158.34-15.30 158.66-15.30L158.66-15.30L158.66-15.30Q159.18-15.30 159.18-14.81L159.18-14.81L159.18-14.81Q159.18-14.67 159.04-14.19L159.04-14.19L159.04-14.19Q158.90-13.72 158.23-12.27L158.23-12.27L158.23-12.27Q157.57-10.82 156.48-9.07L156.48-9.07L156.48-9.07Q153.82-4.97 153.82-3.92L153.82-3.92L153.82-3.92Q153.82-3.61 154.03-3.61L154.03-3.61L154.03-3.61Q154.63-3.61 156.31-5.29" fill="#8e3aa5" stroke="none" stroke-width="none" transform="translate(-136.09500122070312,12.346035700259002)" style="fill: rgb(142, 58, 165);"></path></g><g class="path" style="opacity: 1; transform-origin: 27.605px 5.04604px; animation: 2.5s linear -0.78913s infinite normal forwards running fade-c1e9a4ae-0600-4af7-a661-68487473a99d;"><path d="M166.50-11.87L166.50-11.87L166.50-11.87Q166.92-12.74 166.92-13.41L166.92-13.41L166.92-13.41Q166.92-13.97 166.56-13.97L166.56-13.97L166.56-13.97Q166.36-13.97 166.09-13.84L166.09-13.84L166.09-13.84Q165.83-13.72 165.69-13.58L165.69-13.58L165.52-13.44L165.52-13.44Q164.43-12.50 162.80-9.99L162.80-9.99L162.80-9.99Q161.18-7.49 161.18-6.79L161.18-6.79L161.18-6.79Q161.18-6.65 161.25-6.65L161.25-6.65L161.25-6.65Q161.46-6.65 162.17-7.00L162.17-7.00L162.17-7.00Q162.89-7.35 164.24-8.65L164.24-8.65L164.24-8.65Q165.59-9.94 166.50-11.87zM164.92-3.85L164.92-3.85L164.92-3.85Q166.78-5.57 170.24-9.52L170.24-9.52L170.24-9.52Q170.34-9.63 170.42-9.63L170.42-9.63L170.42-9.63Q170.49-9.63 170.49-9.49L170.49-9.49L170.49-9.49Q170.49-8.82 169.96-8.19L169.96-8.19L169.96-8.19Q167.37-5.32 165.38-3.40L165.38-3.40L165.38-3.40Q163.91-1.93 161.88-0.58L161.88-0.58L161.88-0.58Q159.84 0.77 158.52 0.77L158.52 0.77L158.52 0.77Q156.91 0.77 156.91-1.47L156.91-1.47L156.91-1.47Q156.91-5.18 159.65-9.24L159.65-9.24L159.65-9.24Q162.40-13.30 166.00-14.74L166.00-14.74L166.00-14.74Q167.51-15.37 168.74-15.37L168.74-15.37L168.74-15.37Q170.10-15.37 170.10-14.28L170.10-14.28L170.10-14.28Q170.10-12.25 167.23-9.63L167.23-9.63L167.23-9.63Q164.36-7.00 160.79-5.64L160.79-5.64L160.79-5.64Q160.65-5.60 160.55-5.39L160.55-5.39L160.55-5.39Q160.02-3.96 160.02-2.84L160.02-2.84L160.02-2.84Q160.02-1.58 160.97-1.58L160.97-1.58L160.97-1.58Q162.47-1.58 164.92-3.85" fill="#8e3aa5" stroke="none" stroke-width="none" transform="translate(-136.09500122070312,12.346035700259002)" style="fill: rgb(142, 58, 165);"></path></g><g class="path" style="opacity: 1; transform-origin: 41.585px 4.92604px; animation: 2.5s linear -0.717391s infinite normal forwards running fade-c1e9a4ae-0600-4af7-a661-68487473a99d;"><path d="M178.05-3.40L178.05-3.40L178.05-3.40Q173.95 0.46 172.80 0.46L172.80 0.46L172.80 0.46Q172.20 0.46 172.20-0.35L172.20-0.35L172.20-0.35Q172.20-1.16 172.83-2.70L172.83-2.70L172.83-2.70Q173.46-4.24 174.09-5.39L174.09-5.39L174.72-6.51L174.72-6.51Q177.38-11.17 178.75-13.20L178.75-13.20L178.75-13.20Q179.34-14.07 180.27-14.68L180.27-14.68L180.27-14.68Q181.20-15.30 182.00-15.30L182.00-15.30L182.00-15.30Q182.28-15.30 182.28-15.05L182.28-15.05L182.28-15.05Q182.28-14.88 182.04-14.39L182.04-14.39L182.04-14.39Q181.62-13.62 179.97-10.71L179.97-10.71L179.97-10.71Q178.33-7.81 178.01-7.21L178.01-7.21L178.01-7.21Q176.58-4.69 176.58-3.85L176.58-3.85L176.58-3.85Q176.58-3.54 176.79-3.54L176.79-3.54L176.79-3.54Q177.14-3.54 179.03-5.29L179.03-5.29L179.03-5.29Q180.50-6.76 182.91-9.52L182.91-9.52L182.91-9.52Q183.02-9.63 183.09-9.63L183.09-9.63L183.09-9.63Q183.16-9.63 183.16-9.49L183.16-9.49L183.16-9.49Q183.16-8.82 182.63-8.19L182.63-8.19L182.63-8.19Q180.04-5.32 178.05-3.40" fill="#8e3aa5" stroke="none" stroke-width="none" transform="translate(-136.09500122070312,12.346035700259002)" style="fill: rgb(142, 58, 165);"></path></g><g class="path" style="opacity: 1; transform-origin: 47.43px -6.95896px; animation: 2.5s linear -0.645652s infinite normal forwards running fade-c1e9a4ae-0600-4af7-a661-68487473a99d;"><path d="M182.70-17.29L182.70-17.29L182.70-17.29Q181.83-17.29 181.83-18.34L181.83-18.34L181.83-18.34Q181.83-19.32 182.56-20.32L182.56-20.32L182.56-20.32Q183.30-21.32 184.17-21.32L184.17-21.32L184.17-21.32Q185.22-21.32 185.22-20.13L185.22-20.13L185.22-20.13Q185.22-19.15 184.42-18.22L184.42-18.22L184.42-18.22Q183.61-17.29 182.70-17.29" fill="#8e3aa5" stroke="none" stroke-width="none" transform="translate(-136.09500122070312,12.346035700259002)" style="fill: rgb(142, 58, 165);"></path></g><g class="path" style="opacity: 1; transform-origin: 48.845px 4.57604px; animation: 2.5s linear -0.573913s infinite normal forwards running fade-c1e9a4ae-0600-4af7-a661-68487473a99d;"><path d="M187.85-3.99L187.85-3.99L187.85-3.99Q187.22-2.28 185.85-1.10L185.85-1.10L185.85-1.10Q184.49 0.07 183.31 0.49L183.31 0.49L183.31 0.49Q182.14 0.91 181.20 0.91L181.20 0.91L181.20 0.91Q178.64 0.91 178.64-1.09L178.64-1.09L178.64-1.09Q178.64-3.12 180.88-4.76L180.88-4.76L180.88-4.76Q181.93-5.53 183.16-5.78L183.16-5.78L183.16-5.78Q183.33-5.78 183.33-5.64L183.33-5.64L183.33-5.64Q183.33-5.57 183.26-5.50L183.26-5.50L183.26-5.50Q182.39-4.83 181.60-3.43L181.60-3.43L181.60-3.43Q180.81-2.03 180.81-0.98L180.81-0.98L180.81-0.98Q180.81 0.07 181.69 0.07L181.69 0.07L181.69 0.07Q182.39 0.07 183.07-0.51L183.07-0.51L183.07-0.51Q183.75-1.09 184.10-1.68L184.10-1.68L184.45-2.24L184.45-2.24Q185.15-3.36 185.62-5.81L185.62-5.81L185.62-5.81Q186.10-8.26 186.24-10.15L186.24-10.15L186.34-12.04L186.34-12.04Q186.34-12.32 186.24-12.32L186.24-12.32L186.10-12.25L182.63-8.19L182.63-8.19Q182.25-7.74 182.11-7.74L182.11-7.74L182.11-7.74Q181.93-7.74 181.93-7.98L181.93-7.98L181.93-7.98Q181.93-8.44 182.18-8.68L182.18-8.68L182.49-9.07L182.49-9.07Q186.48-13.55 187.04-14.49L187.04-14.49L187.04-14.49Q187.57-15.30 188.58-15.89L188.58-15.89L188.58-15.89Q189.56-16.45 190.89-16.45L190.89-16.45L190.89-16.45Q191.24-16.45 191.24-16.17L191.24-16.17L191.24-16.17Q191.24-16.00 190.96-15.86L190.96-15.86L190.96-15.86Q190.86-15.82 190.70-15.70L190.70-15.70L190.70-15.70Q190.54-15.58 190.14-15.12L190.14-15.12L190.14-15.12Q189.74-14.67 189.42-14.07L189.42-14.07L189.42-14.07Q189.11-13.48 188.86-12.41L188.86-12.41L188.86-12.41Q188.62-11.34 188.62-10.05L188.62-10.05L188.62-10.05Q188.62-6.02 187.85-3.99" fill="#8e3aa5" stroke="none" stroke-width="none" transform="translate(-136.09500122070312,12.346035700259002)" style="fill: rgb(142, 58, 165);"></path></g><g class="path" style="opacity: 1; transform-origin: 73.4px -0.288964px; animation: 2.5s linear -0.502174s infinite normal forwards running fade-c1e9a4ae-0600-4af7-a661-68487473a99d;"><path d="M225.68-25.97L225.68-25.97L225.68-25.97Q223.86-23.35 221.62-19.32L221.62-19.32L221.62-19.32Q219.38-15.30 218.05-12.57L218.05-12.57L216.72-9.84L216.72-9.84Q213.12-2.35 213.12 0.91L213.12 0.91L213.12 0.91Q213.12 0.98 213.13 1.19L213.13 1.19L213.13 1.19Q213.15 1.40 213.15 1.54L213.15 1.54L213.15 1.54Q213.15 2.10 212.84 2.10L212.84 2.10L212.84 2.10Q212.24 2.10 211.54 1.07L211.54 1.07L211.54 1.07Q210.84 0.04 210.84-1.68L210.84-1.68L210.84-1.68Q210.84-3.26 211.59-5.53L211.59-5.53L211.59-5.53Q212.35-7.81 213.82-10.73L213.82-10.73L213.82-10.73Q215.29-13.65 216.28-15.44L216.28-15.44L216.28-15.44Q217.28-17.22 218.93-20.09L218.93-20.09L218.93-20.09Q219.03-20.30 219.03-20.41L219.03-20.41L219.03-20.41Q218.96-20.58 218.86-20.58L218.86-20.58L218.86-20.58Q218.65-20.58 218.44-20.41L218.44-20.41L218.44-20.41Q216.37-18.73 213.01-14.70L213.01-14.70L213.01-14.70Q209.65-10.68 207.34-7.49L207.34-7.49L205.00-4.31L205.00-4.31Q204.44-3.47 204.09-3.47L204.09-3.47L204.09-3.47Q203.98-3.47 203.91-3.54L203.91-3.54L203.91-3.54Q203.84-3.61 203.81-3.73L203.81-3.73L203.81-3.73Q203.77-3.85 203.75-3.96L203.75-3.96L203.75-3.96Q203.74-4.06 203.74-4.13L203.74-4.13L203.74-4.20L203.74-4.20Q203.98-6.37 204.45-10.26L204.45-10.26L204.45-10.26Q204.93-14.14 205.24-16.80L205.24-16.80L205.24-16.80Q205.56-19.46 205.56-19.53L205.56-19.53L205.56-19.53Q205.56-19.88 205.42-19.88L205.42-19.88L205.42-19.88Q205.35-19.88 205.22-19.78L205.22-19.78L205.22-19.78Q205.10-19.67 205.03-19.57L205.03-19.57L204.96-19.46L204.96-19.46Q203.46-17.22 201.74-13.67L201.74-13.67L201.74-13.67Q200.03-10.12 198.98-7.39L198.98-7.39L198.98-7.39Q198.21-5.43 197.40-3.80L197.40-3.80L197.40-3.80Q196.60-2.17 195.98-1.28L195.98-1.28L195.98-1.28Q195.37-0.39 194.86 0.23L194.86 0.23L194.86 0.23Q194.36 0.84 194.08 1.05L194.08 1.05L193.80 1.26L193.80 1.26Q193.41 1.58 193.20 1.58L193.20 1.58L193.20 1.58Q192.99 1.58 192.99 1.23L192.99 1.23L193.03 0.91L193.03 0.91Q193.38-0.95 196.09-6.16L196.09-6.16L196.09-6.16Q198.80-11.38 201.36-15.68L201.36-15.68L203.91-19.95L205.84-23.28L205.84-23.28Q207.27-27.37 208.04-27.37L208.04-27.37L208.04-27.37Q208.57-27.37 208.57-25.59L208.57-25.59L208.57-25.59Q207.48-12.57 207.48-10.71L207.48-10.71L207.48-10.71Q207.48-10.19 207.69-10.19L207.69-10.19L207.69-10.19Q207.90-10.19 208.18-10.57L208.18-10.57L208.18-10.57Q208.64-11.17 209.44-12.18L209.44-12.18L209.44-12.18Q210.25-13.20 212.52-15.82L212.52-15.82L212.52-15.82Q214.80-18.45 216.81-20.55L216.81-20.55L216.81-20.55Q218.82-22.65 221.20-24.57L221.20-24.57L221.20-24.57Q223.58-26.50 225.12-26.92L225.12-26.92L225.12-26.92Q225.47-26.99 225.58-26.99L225.58-26.99L225.58-26.99Q226.00-26.99 226.00-26.67L226.00-26.67L226.00-26.67Q226.00-26.39 225.68-25.97" fill="#8e3aa5" stroke="none" stroke-width="none" transform="translate(-136.09500122070312,12.346035700259002)" style="fill: rgb(142, 58, 165);"></path></g><g class="path" style="opacity: 1; transform-origin: 88.205px 4.82104px; animation: 2.5s linear -0.430435s infinite normal forwards running fade-c1e9a4ae-0600-4af7-a661-68487473a99d;"><path d="M231.70-12.32L231.70-12.32L231.70-12.32Q232.02-12.25 232.02-12.11L232.02-12.11L232.02-12.11Q232.02-11.90 231.74-11.62L231.74-11.62L231.74-11.62Q231.35-11.24 230.60-10.61L230.60-10.61L230.60-10.61Q229.85-9.98 229.71-9.84L229.71-9.84L229.22-9.17L229.22-9.17Q228.48-7.11 226.96-4.88L226.96-4.88L226.96-4.88Q225.44-2.66 223.25-0.98L223.25-0.98L223.25-0.98Q221.06 0.70 219.07 0.70L219.07 0.70L219.07 0.70Q216.58 0.70 216.58-2.35L216.58-2.35L216.58-2.35Q216.58-5.04 218.33-8.17L218.33-8.17L218.33-8.17Q220.08-11.31 222.86-13.53L222.86-13.53L222.86-13.53Q225.65-15.75 228.34-15.75L228.34-15.75L228.34-15.75Q230.30-15.75 230.30-14.21L230.30-14.21L230.30-14.21Q230.30-13.37 229.46-11.94L229.46-11.94L229.46-11.94Q229.43-11.90 229.43-11.83L229.43-11.83L229.43-11.83Q229.43-11.76 229.50-11.76L229.50-11.76L229.50-11.76Q230.79-12.29 231.70-12.32zM228.38-11.48L228.38-11.48L228.38-11.48Q228.66-12.71 228.66-13.37L228.66-13.37L228.66-13.37Q228.66-14.84 227.68-14.84L227.68-14.84L227.68-14.84Q226.31-14.84 224.28-12.32L224.28-12.32L224.28-12.32Q222.25-9.80 220.80-6.65L220.80-6.65L220.80-6.65Q219.35-3.50 219.35-1.68L219.35-1.68L219.35-1.68Q219.35-0.35 220.29-0.35L220.29-0.35L220.29-0.35Q221.76-0.35 223.81-3.29L223.81-3.29L223.81-3.29Q225.86-6.23 226.28-9.21L226.28-9.21L226.28-9.21Q226.24-9.28 226.24-9.42L226.24-9.42L226.24-9.42Q226.24-10.43 228.06-11.24L228.06-11.24L228.06-11.24Q228.34-11.34 228.38-11.48" fill="#8e3aa5" stroke="none" stroke-width="none" transform="translate(-136.09500122070312,12.346035700259002)" style="fill: rgb(142, 58, 165);"></path></g><g class="path" style="opacity: 1; transform-origin: 100.72px -3.47396px; animation: 2.5s linear -0.358696s infinite normal forwards running fade-c1e9a4ae-0600-4af7-a661-68487473a99d;"><path d="M241.19-5.29L241.19-5.29L241.19-5.29Q242.66-6.76 245.07-9.52L245.07-9.52L245.07-9.52Q245.18-9.63 245.25-9.63L245.25-9.63L245.25-9.63Q245.32-9.63 245.32-9.49L245.32-9.49L245.32-9.49Q245.32-8.82 244.79-8.19L244.79-8.19L244.79-8.19Q242.20-5.32 240.21-3.40L240.21-3.40L240.21-3.40Q236.01 0.49 234.68 0.49L234.68 0.49L234.68 0.49Q234.15 0.49 234.15-0.18L234.15-0.18L234.15-0.18Q234.15-1.44 235.59-4.01L235.59-4.01L235.59-4.01Q237.02-6.58 238.44-8.80L238.44-8.80L238.44-8.80Q239.86-11.03 239.86-11.41L239.86-11.41L239.86-11.41Q239.86-11.62 239.65-11.62L239.65-11.62L239.65-11.62Q238.81-11.62 236.46-9.03L236.46-9.03L236.46-9.03Q234.12-6.44 232.51-4.38L232.51-4.38L232.51-4.38Q230.72-2.14 229.41-0.81L229.41-0.81L229.41-0.81Q228.10 0.53 227.68 0.70L227.68 0.70L227.22 0.91L227.22 0.91Q226.91 0.91 226.91 0.56L226.91 0.56L226.91 0.56Q226.91 0 227.54-1.44L227.54-1.44L227.54-1.44Q228.17-2.87 228.80-4.03L228.80-4.03L229.43-5.18L234.89-14.98L234.89-14.98Q241.33-26.36 245.04-31.15L245.04-31.15L245.04-31.15Q246.09-32.55 246.51-32.55L246.51-32.55L246.51-32.55Q246.72-32.55 246.72-32.27L246.72-32.27L246.72-32.27Q246.72-31.54 245.60-29.26L245.60-29.26L245.60-29.26Q240.10-19.36 237.97-15.54L237.97-15.54L237.97-15.54Q236.67-13.23 235.62-11.43L235.62-11.43L235.62-11.43Q234.57-9.63 234.13-8.89L234.13-8.89L234.13-8.89Q233.70-8.16 233.38-7.61L233.38-7.61L233.38-7.61Q233.07-7.07 232.89-6.69L232.89-6.69L232.89-6.69Q232.86-6.58 232.86-6.48L232.86-6.48L232.86-6.48Q232.86-6.30 232.93-6.30L232.93-6.30L232.93-6.30Q233.00-6.30 233.21-6.51L233.21-6.51L233.21-6.51Q241.05-15.23 243.50-15.23L243.50-15.23L243.50-15.23Q243.99-15.23 243.99-14.74L243.99-14.74L243.99-14.74Q243.99-14.60 243.85-14.12L243.85-14.12L243.85-14.12Q243.71-13.65 243.04-12.22L243.04-12.22L243.04-12.22Q242.38-10.78 241.29-9.03L241.29-9.03L241.29-9.03Q240.63-8.05 239.61-6.23L239.61-6.23L239.61-6.23Q238.60-4.41 238.60-3.85L238.60-3.85L238.60-3.85Q238.60-3.54 238.91-3.54L238.91-3.54L238.91-3.54Q239.02-3.54 239.21-3.62L239.21-3.62L239.21-3.62Q239.40-3.71 239.65-3.92L239.65-3.92L239.65-3.92Q239.89-4.13 240.08-4.31L240.08-4.31L240.08-4.31Q240.28-4.48 240.64-4.81L240.64-4.81L240.64-4.81Q241.01-5.15 241.19-5.29" fill="#8e3aa5" stroke="none" stroke-width="none" transform="translate(-136.09500122070312,12.346035700259002)" style="fill: rgb(142, 58, 165);"></path></g><g class="path" style="opacity: 1; transform-origin: 110.115px 4.92604px; animation: 2.5s linear -0.286957s infinite normal forwards running fade-c1e9a4ae-0600-4af7-a661-68487473a99d;"><path d="M246.58-3.40L246.58-3.40L246.58-3.40Q242.48 0.46 241.33 0.46L241.33 0.46L241.33 0.46Q240.73 0.46 240.73-0.35L240.73-0.35L240.73-0.35Q240.73-1.16 241.36-2.70L241.36-2.70L241.36-2.70Q241.99-4.24 242.62-5.39L242.62-5.39L243.25-6.51L243.25-6.51Q245.91-11.17 247.28-13.20L247.28-13.20L247.28-13.20Q247.87-14.07 248.80-14.68L248.80-14.68L248.80-14.68Q249.73-15.30 250.53-15.30L250.53-15.30L250.53-15.30Q250.81-15.30 250.81-15.05L250.81-15.05L250.81-15.05Q250.81-14.88 250.57-14.39L250.57-14.39L250.57-14.39Q250.15-13.62 248.50-10.71L248.50-10.71L248.50-10.71Q246.86-7.81 246.54-7.21L246.54-7.21L246.54-7.21Q245.11-4.69 245.11-3.85L245.11-3.85L245.11-3.85Q245.11-3.54 245.32-3.54L245.32-3.54L245.32-3.54Q245.67-3.54 247.56-5.29L247.56-5.29L247.56-5.29Q249.03-6.76 251.44-9.52L251.44-9.52L251.44-9.52Q251.55-9.63 251.62-9.63L251.62-9.63L251.62-9.63Q251.69-9.63 251.69-9.49L251.69-9.49L251.69-9.49Q251.69-8.82 251.16-8.19L251.16-8.19L251.16-8.19Q248.57-5.32 246.58-3.40" fill="#8e3aa5" stroke="none" stroke-width="none" transform="translate(-136.09500122070312,12.346035700259002)" style="fill: rgb(142, 58, 165);"></path></g><g class="path" style="opacity: 1; transform-origin: 115.96px -6.95896px; animation: 2.5s linear -0.215217s infinite normal forwards running fade-c1e9a4ae-0600-4af7-a661-68487473a99d;"><path d="M251.23-17.29L251.23-17.29L251.23-17.29Q250.36-17.29 250.36-18.34L250.36-18.34L250.36-18.34Q250.36-19.32 251.09-20.32L251.09-20.32L251.09-20.32Q251.83-21.32 252.70-21.32L252.70-21.32L252.70-21.32Q253.75-21.32 253.75-20.13L253.75-20.13L253.75-20.13Q253.75-19.15 252.95-18.22L252.95-18.22L252.95-18.22Q252.14-17.29 251.23-17.29" fill="#8e3aa5" stroke="none" stroke-width="none" transform="translate(-136.09500122070312,12.346035700259002)" style="fill: rgb(142, 58, 165);"></path></g><g class="path" style="opacity: 1; transform-origin: 120.23px -1.93396px; animation: 2.5s linear -0.143478s infinite normal forwards running fade-c1e9a4ae-0600-4af7-a661-68487473a99d;"><path d="M254.21-5.29L254.21-5.29L254.21-5.29Q255.68-6.76 258.09-9.52L258.09-9.52L258.09-9.52Q258.20-9.63 258.27-9.63L258.27-9.63L258.27-9.63Q258.34-9.63 258.34-9.49L258.34-9.49L258.34-9.49Q258.34-8.82 257.81-8.19L257.81-8.19L257.81-8.19Q255.22-5.32 253.23-3.40L253.23-3.40L253.23-3.40Q249.03 0.67 247.66 0.67L247.66 0.67L247.66 0.67Q247.17 0.67 247.17 0.04L247.17 0.04L247.17 0.04Q247.17-0.70 247.73-2.17L247.73-2.17L247.73-2.17Q248.29-3.64 248.85-4.76L248.85-4.76L249.41-5.85L249.41-5.85Q250.22-7.28 252.07-10.75L252.07-10.75L252.07-10.75Q253.93-14.21 255.66-17.29L255.66-17.29L255.66-17.29Q257.39-20.37 258.93-22.86L258.93-22.86L256.17-22.86L256.17-22.86Q255.82-22.86 255.82-23.03L255.82-23.03L255.82-23.03Q255.82-23.21 256.10-23.38L256.10-23.38L256.10-23.38Q256.38-23.56 256.69-23.56L256.69-23.56L256.69-23.56Q257.46-23.56 259.39-23.59L259.39-23.59L259.39-23.59Q261.10-26.29 262.33-27.86L262.33-27.86L262.33-27.86Q263.41-29.23 263.83-29.23L263.83-29.23L263.83-29.23Q264.08-29.23 264.08-28.91L264.08-28.91L264.08-28.91Q264.08-28.18 262.75-25.76L262.75-25.76L261.56-23.59L265.16-23.59L265.16-23.59Q265.48-23.59 265.48-23.42L265.48-23.42L265.48-23.42Q265.48-22.86 264.46-22.86L264.46-22.86L261.17-22.86L261.17-22.86Q253.09-7.53 252.67-6.79L252.67-6.79L252.67-6.79Q251.20-4.10 251.20-3.29L251.20-3.29L251.20-3.29Q251.20-3.05 251.37-3.05L251.37-3.05L251.37-3.05Q251.86-3.05 254.21-5.29" fill="#8e3aa5" stroke="none" stroke-width="none" transform="translate(-136.09500122070312,12.346035700259002)" style="fill: rgb(142, 58, 165);"></path></g><g class="path" style="opacity: 1; transform-origin: 121.385px 10.331px; animation: 2.5s linear -0.0717391s infinite normal forwards running fade-c1e9a4ae-0600-4af7-a661-68487473a99d;"><path d="M256.50-3.13L256.50-3.13L256.50-3.13Q257.29-4.10 258.27-4.10L258.27-4.10L258.27-4.10Q259.25-4.10 259.25-2.91L259.25-2.91L259.25-2.91Q259.25-1.86 258.48-0.89L258.48-0.89L258.48-0.89Q257.71 0.07 256.76 0.07L256.76 0.07L256.76 0.07Q255.71 0.07 255.71-1.12L255.71-1.12L255.71-1.12Q255.71-2.17 256.50-3.13" fill="#8e3aa5" stroke="none" stroke-width="none" transform="translate(-136.09500122070312,12.346035700259002)" style="fill: rgb(142, 58, 165);"></path></g><g class="path" style="opacity: 1; transform-origin: 129.73px -4.07396px; animation: 2.5s linear 0s infinite normal forwards running fade-c1e9a4ae-0600-4af7-a661-68487473a99d;"><path d="M264.18-16.17L264.18-16.17L264.18-16.17Q264.88-17.75 265.97-19.90L265.97-19.90L265.97-19.90Q267.05-22.05 267.82-23.42L267.82-23.42L268.56-24.78L268.56-24.78Q269.33-26.22 271.29-26.22L271.29-26.22L271.29-26.22Q272.23-26.22 272.23-25.69L272.23-25.69L272.23-25.69Q272.23-25.59 272.16-25.38L272.16-25.38L272.16-25.38Q271.88-24.64 270.99-23.15L270.99-23.15L270.99-23.15Q270.10-21.67 268.56-19.29L268.56-19.29L268.56-19.29Q267.02-16.91 266.18-15.51L266.18-15.51L260.96-7.00L260.96-7.00Q260.61-6.62 259.84-6.62L259.84-6.62L259.84-6.62Q259.42-6.62 259.42-6.93L259.42-6.93L259.42-6.93Q259.42-7.07 259.53-7.28L259.53-7.28L259.53-7.28Q262.57-12.64 264.18-16.17" fill="#8e3aa5" stroke="none" stroke-width="none" transform="translate(-136.09500122070312,12.346035700259002)" style="fill: rgb(142, 58, 165);"></path></g></g>
</g>
</g>
<style id="fade-c1e9a4ae-0600-4af7-a661-68487473a99d" data-anikit="">@keyframes fade-c1e9a4ae-0600-4af7-a661-68487473a99d
{
  0% {
    animation-timing-function: cubic-bezier(0.2057,0.573,0.3723,0.9184);
    opacity: 1;
  }
  100% {
    opacity: 0;
  }
}</style></svg>