<?xml version="1.0" encoding="utf-8"?>
<svg xmlns="http://www.w3.org/2000/svg" style="margin: auto; background: none; display: block; shape-rendering: auto;" width="288" height="28" preserveAspectRatio="xMidYMid">
<style type="text/css">
  text {
    text-anchor: middle; font-size: 20px; opacity: 0;
  }
</style>
<g style="transform-origin:144px 14px;transform:scale(1)">
<g transform="translate(144,14)">
  <g transform="translate(0,0)"><g class="path" style="transform: matrix(1, 0, 0, 1, 0, 14.925); opacity: 0.05; transform-origin: -76.11px 0.96911px; animation: 1s linear 0s 1 normal forwards running float-btt-in-4244aed0-704d-4bb3-850c-fa420009c245;"><path d="M2.48-9.50L7.48-5.18L2.54-0.72L1.36-2.06L4.64-5.10L1.20-8.08L2.48-9.50" fill="#000000" stroke="none" stroke-width="none" transform="translate(-80.44998168945312,6.079110466452197)" style="fill: rgb(0, 0, 0);"></path></g><g class="path" style="transform: matrix(1, 0, 0, 1, 0, 14.925); opacity: 0.05; transform-origin: -63.6px -0.820889px; animation: 1s linear 0.0388235s 1 normal forwards running float-btt-in-4244aed0-704d-4bb3-850c-fa420009c245;"><path d="M12.58-13.80L16.92-13.80L16.92-13.80Q18.84-13.80 19.98-12.71L19.98-12.71L19.98-12.71Q21.12-11.62 21.12-9.72L21.12-9.72L21.12-9.72Q21.12-7.82 19.68-6.47L19.68-6.47L19.68-6.47Q18.24-5.12 16.16-5.12L16.16-5.12L15.02-5.12L15.26 0L12.58 0L12.82-4.86L12.58-13.80zM16.20-11.78L16.20-11.78L15.22-11.78L15.08-7.06L16.44-7.06L16.44-7.06Q17.44-7.06 17.99-7.72L17.99-7.72L17.99-7.72Q18.54-8.38 18.54-9.60L18.54-9.60L18.54-9.60Q18.54-11.78 16.20-11.78" fill="#000000" stroke="none" stroke-width="none" transform="translate(-80.44998168945312,6.079110466452197)" style="fill: rgb(0, 0, 0);"></path></g><g class="path" style="transform: matrix(1, 0, 0, 1, 0, 14.925); opacity: 0.05; transform-origin: -54.67px 3.18911px; animation: 1s linear 0.0776471s 1 normal forwards running float-btt-in-4244aed0-704d-4bb3-850c-fa420009c245;"><path d="M25.18 4.40L22.60 3.86L24.66-0.76L23.18-4.80L21.16-9.66L23.82-10.16L25.10-5.90L25.76-3.88L26.02-3.88L26.50-5.34L27.94-10.18L30.40-9.88L26.86-0.58L25.18 4.40" fill="#000000" stroke="none" stroke-width="none" transform="translate(-80.44998168945312,6.079110466452197)" style="fill: rgb(0, 0, 0);"></path></g><g class="path" style="transform: matrix(1, 0, 0, 1, 0, 14.925); opacity: 0.05; transform-origin: -46.31px -0.110889px; animation: 1s linear 0.116471s 1 normal forwards running float-btt-in-4244aed0-704d-4bb3-850c-fa420009c245;"><path d="M31.24-9.68L32.40-9.68L32.40-11.86L35.10-12.38L34.84-9.68L37.26-9.68L37.04-8.04L34.76-8.04L34.66-3.86L34.66-3.86Q34.66-2.92 34.84-2.61L34.84-2.61L34.84-2.61Q35.02-2.30 35.50-2.30L35.50-2.30L35.50-2.30Q35.98-2.30 36.78-2.52L36.78-2.52L36.90-1.10L36.90-1.10Q35.58 0 34.58 0L34.58 0L34.58 0Q33.58 0 32.94-0.73L32.94-0.73L32.94-0.73Q32.30-1.46 32.30-2.64L32.30-2.64L32.42-4.88L32.40-8.04L31.02-8.04L31.24-9.68" fill="#000000" stroke="none" stroke-width="none" transform="translate(-80.44998168945312,6.079110466452197)" style="fill: rgb(0, 0, 0);"></path></g><g class="path" style="transform: matrix(1, 0, 0, 1, 0, 14.925); opacity: 0.05; transform-origin: -37.58px -1.61089px; animation: 1s linear 0.155294s 1 normal forwards running float-btt-in-4244aed0-704d-4bb3-850c-fa420009c245;"><path d="M44.56-5.06L44.56-5.06Q44.56-6.44 44.32-6.90L44.32-6.90L44.32-6.90Q44.08-7.36 43.20-7.36L43.20-7.36L43.20-7.36Q42.32-7.36 41.20-6.66L41.20-6.66L41.20-5.20L41.42-0.50L38.72 0L38.96-4.86L38.72-14.98L41.46-15.48L41.20-10.30L41.20-7.96L41.20-7.96Q41.50-8.36 41.88-8.74L41.88-8.74L41.88-8.74Q42.26-9.12 43.06-9.60L43.06-9.60L43.06-9.60Q43.86-10.08 44.77-10.08L44.77-10.08L44.77-10.08Q45.68-10.08 46.30-9.37L46.30-9.37L46.30-9.37Q46.92-8.66 46.92-7.44L46.92-7.44L46.80-5.20L47.02-0.40L44.32 0.10L44.56-5.06" fill="#000000" stroke="none" stroke-width="none" transform="translate(-80.44998168945312,6.079110466452197)" style="fill: rgb(0, 0, 0);"></path></g><g class="path" style="transform: matrix(1, 0, 0, 1, 0, 14.925); opacity: 0.05; transform-origin: -27.57px 1.03911px; animation: 1s linear 0.194118s 1 normal forwards running float-btt-in-4244aed0-704d-4bb3-850c-fa420009c245;"><path d="M48.62-4.18L48.62-4.18Q48.62-6.74 50-8.52L50-8.52L50-8.52Q51.38-10.30 53.23-10.30L53.23-10.30L53.23-10.30Q55.08-10.30 56.11-9.10L56.11-9.10L56.11-9.10Q57.14-7.90 57.14-5.92L57.14-5.92L57.14-5.92Q57.14-3.28 55.81-1.53L55.81-1.53L55.81-1.53Q54.48 0.22 52.46 0.22L52.46 0.22L52.46 0.22Q50.80 0.22 49.71-1.03L49.71-1.03L49.71-1.03Q48.62-2.28 48.62-4.18L48.62-4.18zM54.90-4.88L54.90-4.88L54.90-4.88Q54.90-7.78 52.92-7.78L52.92-7.78L52.92-7.78Q50.86-7.78 50.86-5.06L50.86-5.06L50.86-5.06Q50.86-3.64 51.44-2.84L51.44-2.84L51.44-2.84Q52.02-2.04 52.97-2.04L52.97-2.04L52.97-2.04Q53.92-2.04 54.41-2.77L54.41-2.77L54.41-2.77Q54.90-3.50 54.90-4.88" fill="#000000" stroke="none" stroke-width="none" transform="translate(-80.44998168945312,6.079110466452197)" style="fill: rgb(0, 0, 0);"></path></g><g class="path" style="transform: matrix(1, 0, 0, 1, 0, 14.925); opacity: 0.05; transform-origin: -17.57px 1.03911px; animation: 1s linear 0.232941s 1 normal forwards running float-btt-in-4244aed0-704d-4bb3-850c-fa420009c245;"><path d="M64.66-5.06L64.66-5.06Q64.66-6.44 64.42-6.90L64.42-6.90L64.42-6.90Q64.18-7.36 63.30-7.36L63.30-7.36L63.30-7.36Q62.42-7.36 61.30-6.66L61.30-6.66L61.30-5.20L61.52-0.50L58.84 0L59.08-4.86L59.08-4.86Q59-7.54 58.64-9.66L58.64-9.66L61.06-10.18L61.06-10.18Q61.20-9.02 61.26-7.92L61.26-7.92L61.26-7.92Q61.56-8.32 61.94-8.71L61.94-8.71L61.94-8.71Q62.32-9.10 63.14-9.59L63.14-9.59L63.14-9.59Q63.96-10.08 64.87-10.08L64.87-10.08L64.87-10.08Q65.78-10.08 66.40-9.37L66.40-9.37L66.40-9.37Q67.02-8.66 67.02-7.44L67.02-7.44L66.90-5.20L67.12-0.40L64.42 0.10L64.66-5.06" fill="#000000" stroke="none" stroke-width="none" transform="translate(-80.44998168945312,6.079110466452197)" style="fill: rgb(0, 0, 0);"></path></g><g class="path" style="transform: matrix(1, 0, 0, 1, 0, 14.925); opacity: 0.05; transform-origin: -2.06998px -0.710889px; animation: 1s linear 0.271765s 1 normal forwards running float-btt-in-4244aed0-704d-4bb3-850c-fa420009c245;"><path d="M76.94 0.22L76.94 0.22L76.94 0.22Q75.52 0.22 72.84 0L72.84 0L73.08-4.86L72.84-13.80L78.18-13.80L78.18-13.80Q80.88-13.80 82.40-12.18L82.40-12.18L82.40-12.18Q83.92-10.56 83.92-7.68L83.92-7.68L83.92-7.68Q83.92-4.04 82.04-1.91L82.04-1.91L82.04-1.91Q80.16 0.22 76.94 0.22zM77.46-11.64L77.46-11.64L77.46-11.64Q76.14-11.64 75.60-11.62L75.60-11.62L75.40-5.20L75.54-1.96L75.54-1.96Q77.22-1.84 77.80-1.84L77.80-1.84L77.80-1.84Q79.38-1.84 80.29-3.12L80.29-3.12L80.29-3.12Q81.20-4.40 81.20-6.84L81.20-6.84L81.20-6.84Q81.20-9.28 80.31-10.46L80.31-10.46L80.31-10.46Q79.42-11.64 77.46-11.64" fill="#000000" stroke="none" stroke-width="none" transform="translate(-80.44998168945312,6.079110466452197)" style="fill: rgb(0, 0, 0);"></path></g><g class="path" style="transform: matrix(1, 0, 0, 1, 0, 14.925); opacity: 0.05; transform-origin: 8.50002px 1.03911px; animation: 1s linear 0.310588s 1 normal forwards running float-btt-in-4244aed0-704d-4bb3-850c-fa420009c245;"><path d="M89.28-2.04L89.28-2.04L89.28-2.04Q89.86-2.04 90.50-2.34L90.50-2.34L90.50-2.34Q91.14-2.64 91.50-2.94L91.50-2.94L91.86-3.24L92.78-2.12L92.78-2.12Q92.58-1.78 92.16-1.34L92.16-1.34L92.16-1.34Q91.74-0.90 91.31-0.59L91.31-0.59L91.31-0.59Q90.88-0.28 90.17-0.03L90.17-0.03L90.17-0.03Q89.46 0.22 88.70 0.22L88.70 0.22L88.70 0.22Q87.08 0.22 86.06-1.01L86.06-1.01L86.06-1.01Q85.04-2.24 85.04-4.18L85.04-4.18L85.04-4.18Q85.04-6.62 86.46-8.46L86.46-8.46L86.46-8.46Q87.88-10.30 89.78-10.30L89.78-10.30L89.78-10.30Q91.24-10.30 92.05-9.48L92.05-9.48L92.05-9.48Q92.86-8.66 92.86-7.18L92.86-7.18L92.86-7.18Q92.86-6.30 92.56-5.18L92.56-5.18L92.16-4.76L87.16-4.30L87.16-4.30Q87.50-2.04 89.28-2.04zM89.28-8.24L89.28-8.24L89.28-8.24Q88.40-8.24 87.80-7.53L87.80-7.53L87.80-7.53Q87.20-6.82 87.10-5.72L87.10-5.72L90.50-6.14L90.50-6.14Q90.56-6.60 90.56-6.90L90.56-6.90L90.56-6.90Q90.56-8.24 89.28-8.24" fill="#000000" stroke="none" stroke-width="none" transform="translate(-80.44998168945312,6.079110466452197)" style="fill: rgb(0, 0, 0);"></path></g><g class="path" style="transform: matrix(1, 0, 0, 1, 0, 14.925); opacity: 0.05; transform-origin: 17.63px 1.01911px; animation: 1s linear 0.349412s 1 normal forwards running float-btt-in-4244aed0-704d-4bb3-850c-fa420009c245;"><path d="M97.26-5.76L98-2.50L98.26-2.50L98.92-5.24L100-10.18L102.48-9.88L100.98-4.92L99.72-0.24L96.30 0.06L95.12-4.80L93.68-9.66L96.40-10.16L97.26-5.76" fill="#000000" stroke="none" stroke-width="none" transform="translate(-80.44998168945312,6.079110466452197)" style="fill: rgb(0, 0, 0);"></path></g><g class="path" style="transform: matrix(1, 0, 0, 1, 0, 14.925); opacity: 0.05; transform-origin: 26.62px 1.03911px; animation: 1s linear 0.388235s 1 normal forwards running float-btt-in-4244aed0-704d-4bb3-850c-fa420009c245;"><path d="M107.40-2.04L107.40-2.04L107.40-2.04Q107.98-2.04 108.62-2.34L108.62-2.34L108.62-2.34Q109.26-2.64 109.62-2.94L109.62-2.94L109.98-3.24L110.90-2.12L110.90-2.12Q110.70-1.78 110.28-1.34L110.28-1.34L110.28-1.34Q109.86-0.90 109.43-0.59L109.43-0.59L109.43-0.59Q109-0.28 108.29-0.03L108.29-0.03L108.29-0.03Q107.58 0.22 106.82 0.22L106.82 0.22L106.82 0.22Q105.20 0.22 104.18-1.01L104.18-1.01L104.18-1.01Q103.16-2.24 103.16-4.18L103.16-4.18L103.16-4.18Q103.16-6.62 104.58-8.46L104.58-8.46L104.58-8.46Q106-10.30 107.90-10.30L107.90-10.30L107.90-10.30Q109.36-10.30 110.17-9.48L110.17-9.48L110.17-9.48Q110.98-8.66 110.98-7.18L110.98-7.18L110.98-7.18Q110.98-6.30 110.68-5.18L110.68-5.18L110.28-4.76L105.28-4.30L105.28-4.30Q105.62-2.04 107.40-2.04zM107.40-8.24L107.40-8.24L107.40-8.24Q106.52-8.24 105.92-7.53L105.92-7.53L105.92-7.53Q105.32-6.82 105.22-5.72L105.22-5.72L108.62-6.14L108.62-6.14Q108.68-6.60 108.68-6.90L108.68-6.90L108.68-6.90Q108.68-8.24 107.40-8.24" fill="#000000" stroke="none" stroke-width="none" transform="translate(-80.44998168945312,6.079110466452197)" style="fill: rgb(0, 0, 0);"></path></g><g class="path" style="transform: matrix(1, 0, 0, 1, 0, 14.925); opacity: 0.05; transform-origin: 33.64px -1.66089px; animation: 1s linear 0.427059s 1 normal forwards running float-btt-in-4244aed0-704d-4bb3-850c-fa420009c245;"><path d="M112.72-14.98L115.46-15.48L115.20-5.20L115.42-0.50L112.72 0L112.96-4.86L112.72-14.98" fill="#000000" stroke="none" stroke-width="none" transform="translate(-80.44998168945312,6.079110466452197)" style="fill: rgb(0, 0, 0);"></path></g><g class="path" style="transform: matrix(1, 0, 0, 1, 0, 14.925); opacity: 0.05; transform-origin: 40.99px 1.03911px; animation: 1s linear 0.465882s 1 normal forwards running float-btt-in-4244aed0-704d-4bb3-850c-fa420009c245;"><path d="M117.18-4.18L117.18-4.18Q117.18-6.74 118.56-8.52L118.56-8.52L118.56-8.52Q119.94-10.30 121.79-10.30L121.79-10.30L121.79-10.30Q123.64-10.30 124.67-9.10L124.67-9.10L124.67-9.10Q125.70-7.90 125.70-5.92L125.70-5.92L125.70-5.92Q125.70-3.28 124.37-1.53L124.37-1.53L124.37-1.53Q123.04 0.22 121.02 0.22L121.02 0.22L121.02 0.22Q119.36 0.22 118.27-1.03L118.27-1.03L118.27-1.03Q117.18-2.28 117.18-4.18L117.18-4.18zM123.46-4.88L123.46-4.88L123.46-4.88Q123.46-7.78 121.48-7.78L121.48-7.78L121.48-7.78Q119.42-7.78 119.42-5.06L119.42-5.06L119.42-5.06Q119.42-3.64 120-2.84L120-2.84L120-2.84Q120.58-2.04 121.53-2.04L121.53-2.04L121.53-2.04Q122.48-2.04 122.97-2.77L122.97-2.77L122.97-2.77Q123.46-3.50 123.46-4.88" fill="#000000" stroke="none" stroke-width="none" transform="translate(-80.44998168945312,6.079110466452197)" style="fill: rgb(0, 0, 0);"></path></g><g class="path" style="transform: matrix(1, 0, 0, 1, 0, 14.925); opacity: 0.05; transform-origin: 51.07px 3.11911px; animation: 1s linear 0.504706s 1 normal forwards running float-btt-in-4244aed0-704d-4bb3-850c-fa420009c245;"><path d="M132.76-10.10L132.76-10.10L132.76-10.10Q134.04-10.10 134.91-8.98L134.91-8.98L134.91-8.98Q135.78-7.86 135.78-5.96L135.78-5.96L135.78-5.96Q135.78-3.30 134.41-1.65L134.41-1.65L134.41-1.65Q133.04 0 131 0L131 0L131 0Q130.58 0 130.06-0.06L130.06-0.06L130.16 3.76L127.42 4.26L127.68-4.86L127.70-4.86L127.70-4.86Q127.62-7.54 127.26-9.66L127.26-9.66L129.68-10.18L129.68-10.18Q129.80-9.12 129.88-8.08L129.88-8.08L129.88-8.08Q129.92-8.18 130.29-8.63L130.29-8.63L130.29-8.63Q130.66-9.08 131.38-9.59L131.38-9.59L131.38-9.59Q132.10-10.10 132.76-10.10zM131.98-7.50L131.98-7.50L131.98-7.50Q130.92-7.50 129.92-6.92L129.92-6.92L129.92-5.20L130-2.34L130-2.34Q131.08-2.16 131.64-2.16L131.64-2.16L131.64-2.16Q133.56-2.16 133.56-4.83L133.56-4.83L133.56-4.83Q133.56-7.50 131.98-7.50" fill="#000000" stroke="none" stroke-width="none" transform="translate(-80.44998168945312,6.079110466452197)" style="fill: rgb(0, 0, 0);"></path></g><g class="path" style="transform: matrix(1, 0, 0, 1, 0, 14.925); opacity: 0.05; transform-origin: 60.26px 1.03911px; animation: 1s linear 0.543529s 1 normal forwards running float-btt-in-4244aed0-704d-4bb3-850c-fa420009c245;"><path d="M141.04-2.04L141.04-2.04L141.04-2.04Q141.62-2.04 142.26-2.34L142.26-2.34L142.26-2.34Q142.90-2.64 143.26-2.94L143.26-2.94L143.62-3.24L144.54-2.12L144.54-2.12Q144.34-1.78 143.92-1.34L143.92-1.34L143.92-1.34Q143.50-0.90 143.07-0.59L143.07-0.59L143.07-0.59Q142.64-0.28 141.93-0.03L141.93-0.03L141.93-0.03Q141.22 0.22 140.46 0.22L140.46 0.22L140.46 0.22Q138.84 0.22 137.82-1.01L137.82-1.01L137.82-1.01Q136.80-2.24 136.80-4.18L136.80-4.18L136.80-4.18Q136.80-6.62 138.22-8.46L138.22-8.46L138.22-8.46Q139.64-10.30 141.54-10.30L141.54-10.30L141.54-10.30Q143-10.30 143.81-9.48L143.81-9.48L143.81-9.48Q144.62-8.66 144.62-7.18L144.62-7.18L144.62-7.18Q144.62-6.30 144.32-5.18L144.32-5.18L143.92-4.76L138.92-4.30L138.92-4.30Q139.26-2.04 141.04-2.04zM141.04-8.24L141.04-8.24L141.04-8.24Q140.16-8.24 139.56-7.53L139.56-7.53L139.56-7.53Q138.96-6.82 138.86-5.72L138.86-5.72L142.26-6.14L142.26-6.14Q142.32-6.60 142.32-6.90L142.32-6.90L142.32-6.90Q142.32-8.24 141.04-8.24" fill="#000000" stroke="none" stroke-width="none" transform="translate(-80.44998168945312,6.079110466452197)" style="fill: rgb(0, 0, 0);"></path></g><g class="path" style="transform: matrix(1, 0, 0, 1, 0, 14.925); opacity: 0.05; transform-origin: 68.73px 0.98911px; animation: 1s linear 0.582353s 1 normal forwards running float-btt-in-4244aed0-704d-4bb3-850c-fa420009c245;"><path d="M146.14-9.66L146.14-9.66L148.56-10.18L148.56-10.18Q148.74-8.64 148.80-7.26L148.80-7.26L148.80-7.26Q150.62-10.08 152.22-10.08L152.22-10.08L152-6.96L152-6.96Q150.84-6.96 150.17-6.75L150.17-6.75L150.17-6.75Q149.50-6.54 148.80-5.92L148.80-5.92L148.80-5.20L149.02-0.50L146.34 0L146.58-4.86L146.58-4.86Q146.50-7.54 146.14-9.66" fill="#000000" stroke="none" stroke-width="none" transform="translate(-80.44998168945312,6.079110466452197)" style="fill: rgb(0, 0, 0);"></path></g><g class="path" style="transform: matrix(1, 0, 0, 1, 0, 14.925); opacity: 0.05; transform-origin: 78.51px 0.96911px; animation: 1s linear 0.621176s 1 normal forwards running float-btt-in-4244aed0-704d-4bb3-850c-fa420009c245;"><path d="M160.82-0.72L155.82-5.04L160.76-9.50L161.94-8.16L158.66-5.12L162.10-2.14L160.82-0.72" fill="#000000" stroke="none" stroke-width="none" transform="translate(-80.44998168945312,6.079110466452197)" style="fill: rgb(0, 0, 0);"></path></g></g>
</g>
</g>
<style id="float-btt-in-4244aed0-704d-4bb3-850c-fa420009c245" data-anikit="">@keyframes float-btt-in-4244aed0-704d-4bb3-850c-fa420009c245
{
  0% {
    animation-timing-function: cubic-bezier(0.2242,0.7499,0.3142,0.8148);
    transform: translate(0px,14.925px) rotate(0deg) scale(1,1) skewX(0deg) skewY(0deg);
    opacity: 0.05;
  }
  100% {
    transform: translate(0px,0px) rotate(0deg) scale(1,1) skewX(0deg) skewY(0deg);
    opacity: 1;
  }
}</style></svg>