<?xml version="1.0" encoding="utf-8"?>
<svg xmlns="http://www.w3.org/2000/svg" style="margin: auto; background: none; display: block; shape-rendering: auto;" width="265" height="28" preserveAspectRatio="xMidYMid">
<style type="text/css">
  text {
    text-anchor: middle; font-size: 20px; opacity: 0;
  }
</style>
<g style="transform-origin:132.5px 14px;transform:scale(1)">
<g transform="translate(132.5,14)">
  <g transform="translate(0,0)"><g class="path" style="transform: matrix(1, 0, 0, 1, 0, 14.925); opacity: 0.05; transform-origin: -118.2px 0.53029px; animation: 1s linear 0s 1 normal forwards running float-btt-in-4244aed0-704d-4bb3-850c-fa420009c245;"><path d="M2.48-9.50L7.48-5.18L2.54-0.72L1.36-2.06L4.64-5.10L1.20-8.08L2.48-9.50" fill="#000000" stroke="none" stroke-width="none" transform="translate(-122.54000854492188,5.6402903529575985)" style="fill: rgb(0, 0, 0);"></path></g><g class="path" style="transform: matrix(1, 0, 0, 1, 0, 14.925); opacity: 0.05; transform-origin: -106.65px -1.24971px; animation: 1s linear 0.0235714s 1 normal forwards running float-btt-in-4244aed0-704d-4bb3-850c-fa420009c245;"><path d="M11.24-1.82L12.80-3.98L12.80-3.98Q14.50-2.28 16.20-2.28L16.20-2.28L16.20-2.28Q17.08-2.28 17.61-2.69L17.61-2.69L17.61-2.69Q18.14-3.10 18.14-3.75L18.14-3.75L18.14-3.75Q18.14-4.40 17.50-4.85L17.50-4.85L17.50-4.85Q16.86-5.30 15.95-5.64L15.95-5.64L15.95-5.64Q15.04-5.98 14.14-6.41L14.14-6.41L14.14-6.41Q13.24-6.84 12.60-7.64L12.60-7.64L12.60-7.64Q11.96-8.44 11.96-9.58L11.96-9.58L11.96-9.58Q11.96-11.38 13.46-12.69L13.46-12.69L13.46-12.69Q14.96-14 17.02-14L17.02-14L17.02-14Q17.96-14 18.84-13.80L18.84-13.80L18.84-13.80Q19.72-13.60 20.54-13.22L20.54-13.22L19.18-10.30L19.18-10.30Q18.62-10.74 17.65-11.11L17.65-11.11L17.65-11.11Q16.68-11.48 15.95-11.48L15.95-11.48L15.95-11.48Q15.22-11.48 14.77-11.13L14.77-11.13L14.77-11.13Q14.32-10.78 14.32-10.20L14.32-10.20L14.32-10.20Q14.32-9.62 14.96-9.17L14.96-9.17L14.96-9.17Q15.60-8.72 16.51-8.38L16.51-8.38L16.51-8.38Q17.42-8.04 18.33-7.63L18.33-7.63L18.33-7.63Q19.24-7.22 19.88-6.42L19.88-6.42L19.88-6.42Q20.52-5.62 20.52-4.48L20.52-4.48L20.52-4.48Q20.52-2.60 19.02-1.19L19.02-1.19L19.02-1.19Q17.52 0.22 15.52 0.22L15.52 0.22L15.52 0.22Q14.02 0.22 12.86-0.50L12.86-0.50L12.86-0.50Q11.84-1.12 11.42-1.60L11.42-1.60L11.24-1.82" fill="#000000" stroke="none" stroke-width="none" transform="translate(-122.54000854492188,5.6402903529575985)" style="fill: rgb(0, 0, 0);"></path></g><g class="path" style="transform: matrix(1, 0, 0, 1, 0, 14.925); opacity: 0.05; transform-origin: -97.07px 0.60029px; animation: 1s linear 0.0471429s 1 normal forwards running float-btt-in-4244aed0-704d-4bb3-850c-fa420009c245;"><path d="M25.80-2.04L25.80-2.04L25.80-2.04Q26.38-2.04 27.02-2.34L27.02-2.34L27.02-2.34Q27.66-2.64 28.02-2.94L28.02-2.94L28.38-3.24L29.30-2.12L29.30-2.12Q29.10-1.78 28.68-1.34L28.68-1.34L28.68-1.34Q28.26-0.90 27.83-0.59L27.83-0.59L27.83-0.59Q27.40-0.28 26.69-0.03L26.69-0.03L26.69-0.03Q25.98 0.22 25.22 0.22L25.22 0.22L25.22 0.22Q23.60 0.22 22.58-1.01L22.58-1.01L22.58-1.01Q21.56-2.24 21.56-4.18L21.56-4.18L21.56-4.18Q21.56-6.62 22.98-8.46L22.98-8.46L22.98-8.46Q24.40-10.30 26.30-10.30L26.30-10.30L26.30-10.30Q27.76-10.30 28.57-9.48L28.57-9.48L28.57-9.48Q29.38-8.66 29.38-7.18L29.38-7.18L29.38-7.18Q29.38-6.30 29.08-5.18L29.08-5.18L28.68-4.76L23.68-4.30L23.68-4.30Q24.02-2.04 25.80-2.04zM25.80-8.24L25.80-8.24L25.80-8.24Q24.92-8.24 24.32-7.53L24.32-7.53L24.32-7.53Q23.72-6.82 23.62-5.72L23.62-5.72L27.02-6.14L27.02-6.14Q27.08-6.60 27.08-6.90L27.08-6.90L27.08-6.90Q27.08-8.24 25.80-8.24" fill="#000000" stroke="none" stroke-width="none" transform="translate(-122.54000854492188,5.6402903529575985)" style="fill: rgb(0, 0, 0);"></path></g><g class="path" style="transform: matrix(1, 0, 0, 1, 0, 14.925); opacity: 0.05; transform-origin: -87.4px 0.60029px; animation: 1s linear 0.0707143s 1 normal forwards running float-btt-in-4244aed0-704d-4bb3-850c-fa420009c245;"><path d="M36.92-5.06L36.92-5.06Q36.92-6.44 36.68-6.90L36.68-6.90L36.68-6.90Q36.44-7.36 35.56-7.36L35.56-7.36L35.56-7.36Q34.68-7.36 33.56-6.66L33.56-6.66L33.56-5.20L33.78-0.50L31.10 0L31.34-4.86L31.34-4.86Q31.26-7.54 30.90-9.66L30.90-9.66L33.32-10.18L33.32-10.18Q33.46-9.02 33.52-7.92L33.52-7.92L33.52-7.92Q33.82-8.32 34.20-8.71L34.20-8.71L34.20-8.71Q34.58-9.10 35.40-9.59L35.40-9.59L35.40-9.59Q36.22-10.08 37.13-10.08L37.13-10.08L37.13-10.08Q38.04-10.08 38.66-9.37L38.66-9.37L38.66-9.37Q39.28-8.66 39.28-7.44L39.28-7.44L39.16-5.20L39.38-0.40L36.68 0.10L36.92-5.06" fill="#000000" stroke="none" stroke-width="none" transform="translate(-122.54000854492188,5.6402903529575985)" style="fill: rgb(0, 0, 0);"></path></g><g class="path" style="transform: matrix(1, 0, 0, 1, 0, 14.925); opacity: 0.05; transform-origin: -79.63px 0.55029px; animation: 1s linear 0.0942857s 1 normal forwards running float-btt-in-4244aed0-704d-4bb3-850c-fa420009c245;"><path d="M41.58-9.68L44.26-10.18L44.02-5.20L44.24-0.50L41.56 0L41.80-4.86L41.58-9.68" fill="#000000" stroke="none" stroke-width="none" transform="translate(-122.54000854492188,5.6402903529575985)" style="fill: rgb(0, 0, 0);"></path></g><g class="path" style="transform: matrix(1, 0, 0, 1, 0, 14.925); opacity: 0.05; transform-origin: -79.54px -7.55971px; animation: 1s linear 0.117857s 1 normal forwards running float-btt-in-4244aed0-704d-4bb3-850c-fa420009c245;"><path d="M41.44-13.11L41.44-13.11L41.44-13.11Q41.44-13.78 41.96-14.31L41.96-14.31L41.96-14.31Q42.48-14.84 43.16-14.84L43.16-14.84L43.16-14.84Q43.84-14.84 44.20-14.47L44.20-14.47L44.20-14.47Q44.56-14.10 44.56-13.36L44.56-13.36L44.56-13.36Q44.56-12.62 44.05-12.09L44.05-12.09L44.05-12.09Q43.54-11.56 42.87-11.56L42.87-11.56L42.87-11.56Q42.20-11.56 41.82-12L41.82-12L41.82-12Q41.44-12.44 41.44-13.11" fill="#000000" stroke="none" stroke-width="none" transform="translate(-122.54000854492188,5.6402903529575985)" style="fill: rgb(0, 0, 0);"></path></g><g class="path" style="transform: matrix(1, 0, 0, 1, 0, 14.925); opacity: 0.05; transform-origin: -72.42px 0.60029px; animation: 1s linear 0.141429s 1 normal forwards running float-btt-in-4244aed0-704d-4bb3-850c-fa420009c245;"><path d="M45.86-4.18L45.86-4.18Q45.86-6.74 47.24-8.52L47.24-8.52L47.24-8.52Q48.62-10.30 50.47-10.30L50.47-10.30L50.47-10.30Q52.32-10.30 53.35-9.10L53.35-9.10L53.35-9.10Q54.38-7.90 54.38-5.92L54.38-5.92L54.38-5.92Q54.38-3.28 53.05-1.53L53.05-1.53L53.05-1.53Q51.72 0.22 49.70 0.22L49.70 0.22L49.70 0.22Q48.04 0.22 46.95-1.03L46.95-1.03L46.95-1.03Q45.86-2.28 45.86-4.18L45.86-4.18zM52.14-4.88L52.14-4.88L52.14-4.88Q52.14-7.78 50.16-7.78L50.16-7.78L50.16-7.78Q48.10-7.78 48.10-5.06L48.10-5.06L48.10-5.06Q48.10-3.64 48.68-2.84L48.68-2.84L48.68-2.84Q49.26-2.04 50.21-2.04L50.21-2.04L50.21-2.04Q51.16-2.04 51.65-2.77L51.65-2.77L51.65-2.77Q52.14-3.50 52.14-4.88" fill="#000000" stroke="none" stroke-width="none" transform="translate(-122.54000854492188,5.6402903529575985)" style="fill: rgb(0, 0, 0);"></path></g><g class="path" style="transform: matrix(1, 0, 0, 1, 0, 14.925); opacity: 0.05; transform-origin: -63.62px 0.55029px; animation: 1s linear 0.165s 1 normal forwards running float-btt-in-4244aed0-704d-4bb3-850c-fa420009c245;"><path d="M55.88-9.66L55.88-9.66L58.30-10.18L58.30-10.18Q58.48-8.64 58.54-7.26L58.54-7.26L58.54-7.26Q60.36-10.08 61.96-10.08L61.96-10.08L61.74-6.96L61.74-6.96Q60.58-6.96 59.91-6.75L59.91-6.75L59.91-6.75Q59.24-6.54 58.54-5.92L58.54-5.92L58.54-5.20L58.76-0.50L56.08 0L56.32-4.86L56.32-4.86Q56.24-7.54 55.88-9.66" fill="#000000" stroke="none" stroke-width="none" transform="translate(-122.54000854492188,5.6402903529575985)" style="fill: rgb(0, 0, 0);"></path></g><g class="path" style="transform: matrix(1, 0, 0, 1, 0, 14.925); opacity: 0.05; transform-origin: -49.88px -1.32971px; animation: 1s linear 0.188571s 1 normal forwards running float-btt-in-4244aed0-704d-4bb3-850c-fa420009c245;"><path d="M70.02-13.94L72.54-6.24L72.74-6.24L75.66-13.84L78.42-13.76L78.50-5.16L78.88 0L76.18 0L76.28-5.20L76.06-10.46L73.66-3.84L71.20-3.72L68.96-10.46L68.78-5.20L68.92 0L66.44 0L66.72-4.86L66.84-13.44L70.02-13.94" fill="#000000" stroke="none" stroke-width="none" transform="translate(-122.54000854492188,5.6402903529575985)" style="fill: rgb(0, 0, 0);"></path></g><g class="path" style="transform: matrix(1, 0, 0, 1, 0, 14.925); opacity: 0.05; transform-origin: -37.82px 0.52029px; animation: 1s linear 0.212143s 1 normal forwards running float-btt-in-4244aed0-704d-4bb3-850c-fa420009c245;"><path d="M83.24 0L83.24 0Q82.06 0 81.31-0.75L81.31-0.75L81.31-0.75Q80.56-1.50 80.56-2.77L80.56-2.77L80.56-2.77Q80.56-4.04 81.72-4.97L81.72-4.97L81.72-4.97Q82.88-5.90 84.54-5.90L84.54-5.90L85.90-5.90L85.90-6.24L85.90-6.24Q85.90-7.22 85.50-7.58L85.50-7.58L85.50-7.58Q85.10-7.94 84-7.94L84-7.94L84-7.94Q83.54-7.94 82.91-7.75L82.91-7.75L82.91-7.75Q82.28-7.56 81.50-7.16L81.50-7.16L80.92-8.74L80.92-8.74Q81.78-9.34 83.01-9.82L83.01-9.82L83.01-9.82Q84.24-10.30 85.04-10.30L85.04-10.30L85.04-10.30Q88.18-10.30 88.18-7.26L88.18-7.26L88.18-3.34L88.18-3.34Q88.18-2.22 88.88-0.84L88.88-0.84L86.76 0.06L86.76 0.06Q86.26-0.90 86.02-1.66L86.02-1.66L86.02-1.66Q84.92 0 83.24 0L83.24 0zM84.08-2.04L84.08-2.04L84.08-2.04Q84.88-2.04 85.90-2.86L85.90-2.86L85.90-4.20L85.90-4.20Q84.84-4.44 84.18-4.44L84.18-4.44L84.18-4.44Q82.92-4.44 82.92-3.32L82.92-3.32L82.92-3.32Q82.92-2.74 83.24-2.39L83.24-2.39L83.24-2.39Q83.56-2.04 84.08-2.04" fill="#000000" stroke="none" stroke-width="none" transform="translate(-122.54000854492188,5.6402903529575985)" style="fill: rgb(0, 0, 0);"></path></g><g class="path" style="transform: matrix(1, 0, 0, 1, 0, 14.925); opacity: 0.05; transform-origin: -30.59px 0.55029px; animation: 1s linear 0.235714s 1 normal forwards running float-btt-in-4244aed0-704d-4bb3-850c-fa420009c245;"><path d="M90.62-9.68L93.30-10.18L93.06-5.20L93.28-0.50L90.60 0L90.84-4.86L90.62-9.68" fill="#000000" stroke="none" stroke-width="none" transform="translate(-122.54000854492188,5.6402903529575985)" style="fill: rgb(0, 0, 0);"></path></g><g class="path" style="transform: matrix(1, 0, 0, 1, 0, 14.925); opacity: 0.05; transform-origin: -30.5px -7.55971px; animation: 1s linear 0.259286s 1 normal forwards running float-btt-in-4244aed0-704d-4bb3-850c-fa420009c245;"><path d="M90.48-13.11L90.48-13.11L90.48-13.11Q90.48-13.78 91-14.31L91-14.31L91-14.31Q91.52-14.84 92.20-14.84L92.20-14.84L92.20-14.84Q92.88-14.84 93.24-14.47L93.24-14.47L93.24-14.47Q93.60-14.10 93.60-13.36L93.60-13.36L93.60-13.36Q93.60-12.62 93.09-12.09L93.09-12.09L93.09-12.09Q92.58-11.56 91.91-11.56L91.91-11.56L91.91-11.56Q91.24-11.56 90.86-12L90.86-12L90.86-12Q90.48-12.44 90.48-13.11" fill="#000000" stroke="none" stroke-width="none" transform="translate(-122.54000854492188,5.6402903529575985)" style="fill: rgb(0, 0, 0);"></path></g><g class="path" style="transform: matrix(1, 0, 0, 1, 0, 14.925); opacity: 0.05; transform-origin: -23.02px 0.60029px; animation: 1s linear 0.282857s 1 normal forwards running float-btt-in-4244aed0-704d-4bb3-850c-fa420009c245;"><path d="M101.30-5.06L101.30-5.06Q101.30-6.44 101.06-6.90L101.06-6.90L101.06-6.90Q100.82-7.36 99.94-7.36L99.94-7.36L99.94-7.36Q99.06-7.36 97.94-6.66L97.94-6.66L97.94-5.20L98.16-0.50L95.48 0L95.72-4.86L95.72-4.86Q95.64-7.54 95.28-9.66L95.28-9.66L97.70-10.18L97.70-10.18Q97.84-9.02 97.90-7.92L97.90-7.92L97.90-7.92Q98.20-8.32 98.58-8.71L98.58-8.71L98.58-8.71Q98.96-9.10 99.78-9.59L99.78-9.59L99.78-9.59Q100.60-10.08 101.51-10.08L101.51-10.08L101.51-10.08Q102.42-10.08 103.04-9.37L103.04-9.37L103.04-9.37Q103.66-8.66 103.66-7.44L103.66-7.44L103.54-5.20L103.76-0.40L101.06 0.10L101.30-5.06" fill="#000000" stroke="none" stroke-width="none" transform="translate(-122.54000854492188,5.6402903529575985)" style="fill: rgb(0, 0, 0);"></path></g><g class="path" style="transform: matrix(1, 0, 0, 1, 0, 14.925); opacity: 0.05; transform-origin: -14.01px -2.09971px; animation: 1s linear 0.306429s 1 normal forwards running float-btt-in-4244aed0-704d-4bb3-850c-fa420009c245;"><path d="M111.92-15.30L111.30-13.02L111.30-13.02Q110.56-13.20 109.96-13.20L109.96-13.20L109.96-13.20Q109.36-13.20 109.09-12.84L109.09-12.84L109.09-12.84Q108.82-12.48 108.82-11.58L108.82-11.58L108.80-9.68L110.96-9.68L110.74-8.04L108.80-8.04L108.78-5.20L109.00-0.50L106.30 0L106.54-4.86L106.46-8.04L105.14-8.04L105.36-9.68L106.42-9.68L106.40-11.20L106.40-11.20Q106.40-12.98 107.50-14.23L107.50-14.23L107.50-14.23Q108.60-15.48 110.18-15.48L110.18-15.48L110.18-15.48Q111.02-15.48 111.92-15.30L111.92-15.30" fill="#000000" stroke="none" stroke-width="none" transform="translate(-122.54000854492188,5.6402903529575985)" style="fill: rgb(0, 0, 0);"></path></g><g class="path" style="transform: matrix(1, 0, 0, 1, 0, 14.925); opacity: 0.05; transform-origin: -7.70001px 0.55029px; animation: 1s linear 0.33s 1 normal forwards running float-btt-in-4244aed0-704d-4bb3-850c-fa420009c245;"><path d="M111.80-9.66L111.80-9.66L114.22-10.18L114.22-10.18Q114.40-8.64 114.46-7.26L114.46-7.26L114.46-7.26Q116.28-10.08 117.88-10.08L117.88-10.08L117.66-6.96L117.66-6.96Q116.50-6.96 115.83-6.75L115.83-6.75L115.83-6.75Q115.16-6.54 114.46-5.92L114.46-5.92L114.46-5.20L114.68-0.50L112.00 0L112.24-4.86L112.24-4.86Q112.16-7.54 111.80-9.66" fill="#000000" stroke="none" stroke-width="none" transform="translate(-122.54000854492188,5.6402903529575985)" style="fill: rgb(0, 0, 0);"></path></g><g class="path" style="transform: matrix(1, 0, 0, 1, 0, 14.925); opacity: 0.05; transform-origin: 0.0799904px 0.52029px; animation: 1s linear 0.353571s 1 normal forwards running float-btt-in-4244aed0-704d-4bb3-850c-fa420009c245;"><path d="M121.14 0L121.14 0Q119.96 0 119.21-0.75L119.21-0.75L119.21-0.75Q118.46-1.50 118.46-2.77L118.46-2.77L118.46-2.77Q118.46-4.04 119.62-4.97L119.62-4.97L119.62-4.97Q120.78-5.90 122.44-5.90L122.44-5.90L123.80-5.90L123.80-6.24L123.80-6.24Q123.80-7.22 123.40-7.58L123.40-7.58L123.40-7.58Q123.00-7.94 121.90-7.94L121.90-7.94L121.90-7.94Q121.44-7.94 120.81-7.75L120.81-7.75L120.81-7.75Q120.18-7.56 119.40-7.16L119.40-7.16L118.82-8.74L118.82-8.74Q119.68-9.34 120.91-9.82L120.91-9.82L120.91-9.82Q122.14-10.30 122.94-10.30L122.94-10.30L122.94-10.30Q126.08-10.30 126.08-7.26L126.08-7.26L126.08-3.34L126.08-3.34Q126.08-2.22 126.78-0.84L126.78-0.84L124.66 0.06L124.66 0.06Q124.16-0.90 123.92-1.66L123.92-1.66L123.92-1.66Q122.82 0 121.14 0L121.14 0zM121.98-2.04L121.98-2.04L121.98-2.04Q122.78-2.04 123.80-2.86L123.80-2.86L123.80-4.20L123.80-4.20Q122.74-4.44 122.08-4.44L122.08-4.44L122.08-4.44Q120.82-4.44 120.82-3.32L120.82-3.32L120.82-3.32Q120.82-2.74 121.14-2.39L121.14-2.39L121.14-2.39Q121.46-2.04 121.98-2.04" fill="#000000" stroke="none" stroke-width="none" transform="translate(-122.54000854492188,5.6402903529575985)" style="fill: rgb(0, 0, 0);"></path></g><g class="path" style="transform: matrix(1, 0, 0, 1, 0, 14.925); opacity: 0.05; transform-origin: 12.8px 0.60029px; animation: 1s linear 0.377143s 1 normal forwards running float-btt-in-4244aed0-704d-4bb3-850c-fa420009c245;"><path d="M134.32-5.06L134.32-5.06Q134.32-6.44 134.08-6.90L134.08-6.90L134.08-6.90Q133.84-7.36 132.96-7.36L132.96-7.36L132.96-7.36Q132.08-7.36 130.96-6.66L130.96-6.66L130.96-5.20L131.18-0.50L128.50 0L128.74-4.86L128.74-4.86Q128.66-7.54 128.30-9.66L128.30-9.66L130.72-10.18L130.72-10.18Q130.86-9.02 130.92-7.92L130.92-7.92L130.92-7.92Q131.22-8.32 131.60-8.71L131.60-8.71L131.60-8.71Q131.98-9.10 132.80-9.59L132.80-9.59L132.80-9.59Q133.62-10.08 134.46-10.08L134.46-10.08L134.46-10.08Q135.30-10.08 135.88-9.54L135.88-9.54L135.88-9.54Q136.46-9 136.62-8.06L136.62-8.06L136.62-8.06Q138.28-10.08 139.98-10.08L139.98-10.08L139.98-10.08Q141.04-10.08 141.66-9.37L141.66-9.37L141.66-9.37Q142.28-8.66 142.28-7.44L142.28-7.44L142.16-5.20L142.38-0.40L139.68 0.10L139.92-5.06L139.92-5.06Q139.92-6.44 139.68-6.90L139.68-6.90L139.68-6.90Q139.44-7.36 138.58-7.36L138.58-7.36L138.58-7.36Q137.72-7.36 136.64-6.70L136.64-6.70L136.56-5.20L136.78-0.40L134.08 0.10L134.32-5.06" fill="#000000" stroke="none" stroke-width="none" transform="translate(-122.54000854492188,5.6402903529575985)" style="fill: rgb(0, 0, 0);"></path></g><g class="path" style="transform: matrix(1, 0, 0, 1, 0, 14.925); opacity: 0.05; transform-origin: 25.31px 0.60029px; animation: 1s linear 0.400714s 1 normal forwards running float-btt-in-4244aed0-704d-4bb3-850c-fa420009c245;"><path d="M148.18-2.04L148.18-2.04L148.18-2.04Q148.76-2.04 149.40-2.34L149.40-2.34L149.40-2.34Q150.04-2.64 150.40-2.94L150.40-2.94L150.76-3.24L151.68-2.12L151.68-2.12Q151.48-1.78 151.06-1.34L151.06-1.34L151.06-1.34Q150.64-0.90 150.21-0.59L150.21-0.59L150.21-0.59Q149.78-0.28 149.07-0.03L149.07-0.03L149.07-0.03Q148.36 0.22 147.60 0.22L147.60 0.22L147.60 0.22Q145.98 0.22 144.96-1.01L144.96-1.01L144.96-1.01Q143.94-2.24 143.94-4.18L143.94-4.18L143.94-4.18Q143.94-6.62 145.36-8.46L145.36-8.46L145.36-8.46Q146.78-10.30 148.68-10.30L148.68-10.30L148.68-10.30Q150.14-10.30 150.95-9.48L150.95-9.48L150.95-9.48Q151.76-8.66 151.76-7.18L151.76-7.18L151.76-7.18Q151.76-6.30 151.46-5.18L151.46-5.18L151.06-4.76L146.06-4.30L146.06-4.30Q146.40-2.04 148.18-2.04zM148.18-8.24L148.18-8.24L148.18-8.24Q147.30-8.24 146.70-7.53L146.70-7.53L146.70-7.53Q146.10-6.82 146-5.72L146-5.72L149.40-6.14L149.40-6.14Q149.46-6.60 149.46-6.90L149.46-6.90L149.46-6.90Q149.46-8.24 148.18-8.24" fill="#000000" stroke="none" stroke-width="none" transform="translate(-122.54000854492188,5.6402903529575985)" style="fill: rgb(0, 0, 0);"></path></g><g class="path" style="transform: matrix(1, 0, 0, 1, 0, 14.925); opacity: 0.05; transform-origin: 40.02px -1.14971px; animation: 1s linear 0.424286s 1 normal forwards running float-btt-in-4244aed0-704d-4bb3-850c-fa420009c245;"><path d="M161.12 0.22L161.12 0.22L161.12 0.22Q159.70 0.22 157.02 0L157.02 0L157.26-4.86L157.02-13.80L162.36-13.80L162.36-13.80Q165.06-13.80 166.58-12.18L166.58-12.18L166.58-12.18Q168.10-10.56 168.10-7.68L168.10-7.68L168.10-7.68Q168.10-4.04 166.22-1.91L166.22-1.91L166.22-1.91Q164.34 0.22 161.12 0.22zM161.64-11.64L161.64-11.64L161.64-11.64Q160.32-11.64 159.78-11.62L159.78-11.62L159.58-5.20L159.72-1.96L159.72-1.96Q161.40-1.84 161.98-1.84L161.98-1.84L161.98-1.84Q163.56-1.84 164.47-3.12L164.47-3.12L164.47-3.12Q165.38-4.40 165.38-6.84L165.38-6.84L165.38-6.84Q165.38-9.28 164.49-10.46L164.49-10.46L164.49-10.46Q163.60-11.64 161.64-11.64" fill="#000000" stroke="none" stroke-width="none" transform="translate(-122.54000854492188,5.6402903529575985)" style="fill: rgb(0, 0, 0);"></path></g><g class="path" style="transform: matrix(1, 0, 0, 1, 0, 14.925); opacity: 0.05; transform-origin: 50.59px 0.60029px; animation: 1s linear 0.447857s 1 normal forwards running float-btt-in-4244aed0-704d-4bb3-850c-fa420009c245;"><path d="M173.46-2.04L173.46-2.04L173.46-2.04Q174.04-2.04 174.68-2.34L174.68-2.34L174.68-2.34Q175.32-2.64 175.68-2.94L175.68-2.94L176.04-3.24L176.96-2.12L176.96-2.12Q176.76-1.78 176.34-1.34L176.34-1.34L176.34-1.34Q175.92-0.90 175.49-0.59L175.49-0.59L175.49-0.59Q175.06-0.28 174.35-0.03L174.35-0.03L174.35-0.03Q173.64 0.22 172.88 0.22L172.88 0.22L172.88 0.22Q171.26 0.22 170.24-1.01L170.24-1.01L170.24-1.01Q169.22-2.24 169.22-4.18L169.22-4.18L169.22-4.18Q169.22-6.62 170.64-8.46L170.64-8.46L170.64-8.46Q172.06-10.30 173.96-10.30L173.96-10.30L173.96-10.30Q175.42-10.30 176.23-9.48L176.23-9.48L176.23-9.48Q177.04-8.66 177.04-7.18L177.04-7.18L177.04-7.18Q177.04-6.30 176.74-5.18L176.74-5.18L176.34-4.76L171.34-4.30L171.34-4.30Q171.68-2.04 173.46-2.04zM173.46-8.24L173.46-8.24L173.46-8.24Q172.58-8.24 171.98-7.53L171.98-7.53L171.98-7.53Q171.38-6.82 171.28-5.72L171.28-5.72L174.68-6.14L174.68-6.14Q174.74-6.60 174.74-6.90L174.74-6.90L174.74-6.90Q174.74-8.24 173.46-8.24" fill="#000000" stroke="none" stroke-width="none" transform="translate(-122.54000854492188,5.6402903529575985)" style="fill: rgb(0, 0, 0);"></path></g><g class="path" style="transform: matrix(1, 0, 0, 1, 0, 14.925); opacity: 0.05; transform-origin: 59.72px 0.58029px; animation: 1s linear 0.471429s 1 normal forwards running float-btt-in-4244aed0-704d-4bb3-850c-fa420009c245;"><path d="M181.44-5.76L182.18-2.50L182.44-2.50L183.10-5.24L184.18-10.18L186.66-9.88L185.16-4.92L183.90-0.24L180.48 0.06L179.30-4.80L177.86-9.66L180.58-10.16L181.44-5.76" fill="#000000" stroke="none" stroke-width="none" transform="translate(-122.54000854492188,5.6402903529575985)" style="fill: rgb(0, 0, 0);"></path></g><g class="path" style="transform: matrix(1, 0, 0, 1, 0, 14.925); opacity: 0.05; transform-origin: 68.71px 0.60029px; animation: 1s linear 0.495s 1 normal forwards running float-btt-in-4244aed0-704d-4bb3-850c-fa420009c245;"><path d="M191.58-2.04L191.58-2.04L191.58-2.04Q192.16-2.04 192.80-2.34L192.80-2.34L192.80-2.34Q193.44-2.64 193.80-2.94L193.80-2.94L194.16-3.24L195.08-2.12L195.08-2.12Q194.88-1.78 194.46-1.34L194.46-1.34L194.46-1.34Q194.04-0.90 193.61-0.59L193.61-0.59L193.61-0.59Q193.18-0.28 192.47-0.03L192.47-0.03L192.47-0.03Q191.76 0.22 191.00 0.22L191.00 0.22L191.00 0.22Q189.38 0.22 188.36-1.01L188.36-1.01L188.36-1.01Q187.34-2.24 187.34-4.18L187.34-4.18L187.34-4.18Q187.34-6.62 188.76-8.46L188.76-8.46L188.76-8.46Q190.18-10.30 192.08-10.30L192.08-10.30L192.08-10.30Q193.54-10.30 194.35-9.48L194.35-9.48L194.35-9.48Q195.16-8.66 195.16-7.18L195.16-7.18L195.16-7.18Q195.16-6.30 194.86-5.18L194.86-5.18L194.46-4.76L189.46-4.30L189.46-4.30Q189.80-2.04 191.58-2.04zM191.58-8.24L191.58-8.24L191.58-8.24Q190.70-8.24 190.10-7.53L190.10-7.53L190.10-7.53Q189.50-6.82 189.40-5.72L189.40-5.72L192.80-6.14L192.80-6.14Q192.86-6.60 192.86-6.90L192.86-6.90L192.86-6.90Q192.86-8.24 191.58-8.24" fill="#000000" stroke="none" stroke-width="none" transform="translate(-122.54000854492188,5.6402903529575985)" style="fill: rgb(0, 0, 0);"></path></g><g class="path" style="transform: matrix(1, 0, 0, 1, 0, 14.925); opacity: 0.05; transform-origin: 75.73px -2.09971px; animation: 1s linear 0.518571s 1 normal forwards running float-btt-in-4244aed0-704d-4bb3-850c-fa420009c245;"><path d="M196.90-14.98L199.64-15.48L199.38-5.20L199.60-0.50L196.90 0L197.14-4.86L196.90-14.98" fill="#000000" stroke="none" stroke-width="none" transform="translate(-122.54000854492188,5.6402903529575985)" style="fill: rgb(0, 0, 0);"></path></g><g class="path" style="transform: matrix(1, 0, 0, 1, 0, 14.925); opacity: 0.05; transform-origin: 83.08px 0.60029px; animation: 1s linear 0.542143s 1 normal forwards running float-btt-in-4244aed0-704d-4bb3-850c-fa420009c245;"><path d="M201.36-4.18L201.36-4.18Q201.36-6.74 202.74-8.52L202.74-8.52L202.74-8.52Q204.12-10.30 205.97-10.30L205.97-10.30L205.97-10.30Q207.82-10.30 208.85-9.10L208.85-9.10L208.85-9.10Q209.88-7.90 209.88-5.92L209.88-5.92L209.88-5.92Q209.88-3.28 208.55-1.53L208.55-1.53L208.55-1.53Q207.22 0.22 205.20 0.22L205.20 0.22L205.20 0.22Q203.54 0.22 202.45-1.03L202.45-1.03L202.45-1.03Q201.36-2.28 201.36-4.18L201.36-4.18zM207.64-4.88L207.64-4.88L207.64-4.88Q207.64-7.78 205.66-7.78L205.66-7.78L205.66-7.78Q203.60-7.78 203.60-5.06L203.60-5.06L203.60-5.06Q203.60-3.64 204.18-2.84L204.18-2.84L204.18-2.84Q204.76-2.04 205.71-2.04L205.71-2.04L205.71-2.04Q206.66-2.04 207.15-2.77L207.15-2.77L207.15-2.77Q207.64-3.50 207.64-4.88" fill="#000000" stroke="none" stroke-width="none" transform="translate(-122.54000854492188,5.6402903529575985)" style="fill: rgb(0, 0, 0);"></path></g><g class="path" style="transform: matrix(1, 0, 0, 1, 0, 14.925); opacity: 0.05; transform-origin: 93.16px 2.68029px; animation: 1s linear 0.565714s 1 normal forwards running float-btt-in-4244aed0-704d-4bb3-850c-fa420009c245;"><path d="M216.94-10.10L216.94-10.10L216.94-10.10Q218.22-10.10 219.09-8.98L219.09-8.98L219.09-8.98Q219.96-7.86 219.96-5.96L219.96-5.96L219.96-5.96Q219.96-3.30 218.59-1.65L218.59-1.65L218.59-1.65Q217.22 0 215.18 0L215.18 0L215.18 0Q214.76 0 214.24-0.06L214.24-0.06L214.34 3.76L211.60 4.26L211.86-4.86L211.88-4.86L211.88-4.86Q211.80-7.54 211.44-9.66L211.44-9.66L213.86-10.18L213.86-10.18Q213.98-9.12 214.06-8.08L214.06-8.08L214.06-8.08Q214.10-8.18 214.47-8.63L214.47-8.63L214.47-8.63Q214.84-9.08 215.56-9.59L215.56-9.59L215.56-9.59Q216.28-10.10 216.94-10.10zM216.16-7.50L216.16-7.50L216.16-7.50Q215.10-7.50 214.10-6.92L214.10-6.92L214.10-5.20L214.18-2.34L214.18-2.34Q215.26-2.16 215.82-2.16L215.82-2.16L215.82-2.16Q217.74-2.16 217.74-4.83L217.74-4.83L217.74-4.83Q217.74-7.50 216.16-7.50" fill="#000000" stroke="none" stroke-width="none" transform="translate(-122.54000854492188,5.6402903529575985)" style="fill: rgb(0, 0, 0);"></path></g><g class="path" style="transform: matrix(1, 0, 0, 1, 0, 14.925); opacity: 0.05; transform-origin: 102.35px 0.60029px; animation: 1s linear 0.589286s 1 normal forwards running float-btt-in-4244aed0-704d-4bb3-850c-fa420009c245;"><path d="M225.22-2.04L225.22-2.04L225.22-2.04Q225.80-2.04 226.44-2.34L226.44-2.34L226.44-2.34Q227.08-2.64 227.44-2.94L227.44-2.94L227.80-3.24L228.72-2.12L228.72-2.12Q228.52-1.78 228.10-1.34L228.10-1.34L228.10-1.34Q227.68-0.90 227.25-0.59L227.25-0.59L227.25-0.59Q226.82-0.28 226.11-0.03L226.11-0.03L226.11-0.03Q225.40 0.22 224.64 0.22L224.64 0.22L224.64 0.22Q223.02 0.22 222.00-1.01L222.00-1.01L222.00-1.01Q220.98-2.24 220.98-4.18L220.98-4.18L220.98-4.18Q220.98-6.62 222.40-8.46L222.40-8.46L222.40-8.46Q223.82-10.30 225.72-10.30L225.72-10.30L225.72-10.30Q227.18-10.30 227.99-9.48L227.99-9.48L227.99-9.48Q228.80-8.66 228.80-7.18L228.80-7.18L228.80-7.18Q228.80-6.30 228.50-5.18L228.50-5.18L228.10-4.76L223.10-4.30L223.10-4.30Q223.44-2.04 225.22-2.04zM225.22-8.24L225.22-8.24L225.22-8.24Q224.34-8.24 223.74-7.53L223.74-7.53L223.74-7.53Q223.14-6.82 223.04-5.72L223.04-5.72L226.44-6.14L226.44-6.14Q226.50-6.60 226.50-6.90L226.50-6.90L226.50-6.90Q226.50-8.24 225.22-8.24" fill="#000000" stroke="none" stroke-width="none" transform="translate(-122.54000854492188,5.6402903529575985)" style="fill: rgb(0, 0, 0);"></path></g><g class="path" style="transform: matrix(1, 0, 0, 1, 0, 14.925); opacity: 0.05; transform-origin: 110.82px 0.55029px; animation: 1s linear 0.612857s 1 normal forwards running float-btt-in-4244aed0-704d-4bb3-850c-fa420009c245;"><path d="M230.32-9.66L230.32-9.66L232.74-10.18L232.74-10.18Q232.92-8.64 232.98-7.26L232.98-7.26L232.98-7.26Q234.80-10.08 236.40-10.08L236.40-10.08L236.18-6.96L236.18-6.96Q235.02-6.96 234.35-6.75L234.35-6.75L234.35-6.75Q233.68-6.54 232.98-5.92L232.98-5.92L232.98-5.20L233.20-0.50L230.52 0L230.76-4.86L230.76-4.86Q230.68-7.54 230.32-9.66" fill="#000000" stroke="none" stroke-width="none" transform="translate(-122.54000854492188,5.6402903529575985)" style="fill: rgb(0, 0, 0);"></path></g><g class="path" style="transform: matrix(1, 0, 0, 1, 0, 14.925); opacity: 0.05; transform-origin: 120.6px 0.53029px; animation: 1s linear 0.636429s 1 normal forwards running float-btt-in-4244aed0-704d-4bb3-850c-fa420009c245;"><path d="M245.00-0.72L240.00-5.04L244.94-9.50L246.12-8.16L242.84-5.12L246.28-2.14L245.00-0.72" fill="#000000" stroke="none" stroke-width="none" transform="translate(-122.54000854492188,5.6402903529575985)" style="fill: rgb(0, 0, 0);"></path></g></g>
</g>
</g>
<style id="float-btt-in-4244aed0-704d-4bb3-850c-fa420009c245" data-anikit="">@keyframes float-btt-in-4244aed0-704d-4bb3-850c-fa420009c245
{
  0% {
    animation-timing-function: cubic-bezier(0.2242,0.7499,0.3142,0.8148);
    transform: translate(0px,14.925px) rotate(0deg) scale(1,1) skewX(0deg) skewY(0deg);
    opacity: 0.05;
  }
  100% {
    transform: translate(0px,0px) rotate(0deg) scale(1,1) skewX(0deg) skewY(0deg);
    opacity: 1;
  }
}</style></svg>