<?xml version="1.0" encoding="utf-8"?>
<svg xmlns="http://www.w3.org/2000/svg" style="margin: auto; background: none; display: block; shape-rendering: auto;" width="232" height="28" preserveAspectRatio="xMidYMid">
<style type="text/css">
  text {
    text-anchor: middle; font-size: 20px; opacity: 0;
  }
</style>
<g style="transform-origin:116px 14px;transform:scale(1)">
<g transform="translate(116,14)">
  <g transform="translate(0,0)"><g class="path" style="transform: matrix(1, 0, 0, 1, 0, 14.925); opacity: 0.05; transform-origin: -62.29px 0.486929px; animation: 1s linear 0s 1 normal forwards running float-btt-in-4244aed0-704d-4bb3-850c-fa420009c245;"><path d="M2.48-9.50L7.48-5.18L2.54-0.72L1.36-2.06L4.64-5.10L1.20-8.08L2.48-9.50" fill="#000000" stroke="none" stroke-width="none" transform="translate(-66.6300048828125,5.59692943572998)" style="fill: rgb(0, 0, 0);"></path></g><g class="path" style="transform: matrix(1, 0, 0, 1, 0, 14.925); opacity: 0.05; transform-origin: -52.63px -1.35307px; animation: 1s linear 0.04125s 1 normal forwards running float-btt-in-4244aed0-704d-4bb3-850c-fa420009c245;"><path d="M12.58-13.40L15.42-13.90L15.14-5.20L15.38 0L12.58 0L12.82-4.86L12.58-13.40" fill="#000000" stroke="none" stroke-width="none" transform="translate(-66.6300048828125,5.59692943572998)" style="fill: rgb(0, 0, 0);"></path></g><g class="path" style="transform: matrix(1, 0, 0, 1, 0, 14.925); opacity: 0.05; transform-origin: -44.79px 0.55693px; animation: 1s linear 0.0825s 1 normal forwards running float-btt-in-4244aed0-704d-4bb3-850c-fa420009c245;"><path d="M17.58-4.18L17.58-4.18Q17.58-6.74 18.96-8.52L18.96-8.52L18.96-8.52Q20.34-10.30 22.19-10.30L22.19-10.30L22.19-10.30Q24.04-10.30 25.07-9.10L25.07-9.10L25.07-9.10Q26.10-7.90 26.10-5.92L26.10-5.92L26.10-5.92Q26.10-3.28 24.77-1.53L24.77-1.53L24.77-1.53Q23.44 0.22 21.42 0.22L21.42 0.22L21.42 0.22Q19.76 0.22 18.67-1.03L18.67-1.03L18.67-1.03Q17.58-2.28 17.58-4.18L17.58-4.18zM23.86-4.88L23.86-4.88L23.86-4.88Q23.86-7.78 21.88-7.78L21.88-7.78L21.88-7.78Q19.82-7.78 19.82-5.06L19.82-5.06L19.82-5.06Q19.82-3.64 20.40-2.84L20.40-2.84L20.40-2.84Q20.98-2.04 21.93-2.04L21.93-2.04L21.93-2.04Q22.88-2.04 23.37-2.77L23.37-2.77L23.37-2.77Q23.86-3.50 23.86-4.88" fill="#000000" stroke="none" stroke-width="none" transform="translate(-66.6300048828125,5.59692943572998)" style="fill: rgb(0, 0, 0);"></path></g><g class="path" style="transform: matrix(1, 0, 0, 1, 0, 14.925); opacity: 0.05; transform-origin: -35.11px -1.30307px; animation: 1s linear 0.12375s 1 normal forwards running float-btt-in-4244aed0-704d-4bb3-850c-fa420009c245;"><path d="M30.20-11.78L26.66-11.50L26.88-13.80L36.38-13.80L36.16-11.50L32.68-11.80L32.60-5.20L32.84 0L30.04 0L30.28-4.86L30.20-11.78" fill="#000000" stroke="none" stroke-width="none" transform="translate(-66.6300048828125,5.59692943572998)" style="fill: rgb(0, 0, 0);"></path></g><g class="path" style="transform: matrix(1, 0, 0, 1, 0, 14.925); opacity: 0.05; transform-origin: -21.8px -1.30307px; animation: 1s linear 0.165s 1 normal forwards running float-btt-in-4244aed0-704d-4bb3-850c-fa420009c245;"><path d="M48.38 0L41.06 0L41.30-4.86L41.06-13.80L48.56-13.80L48.34-11.66L43.84-11.66L43.72-8.12L47.72-8.12L47.50-6L43.64-6L43.62-5.20L43.76-2.12L48.60-2.12L48.38 0" fill="#000000" stroke="none" stroke-width="none" transform="translate(-66.6300048828125,5.59692943572998)" style="fill: rgb(0, 0, 0);"></path></g><g class="path" style="transform: matrix(1, 0, 0, 1, 0, 14.925); opacity: 0.05; transform-origin: -12.15px 0.55693px; animation: 1s linear 0.20625s 1 normal forwards running float-btt-in-4244aed0-704d-4bb3-850c-fa420009c245;"><path d="M56.26-5.06L56.26-5.06Q56.26-6.44 56.02-6.90L56.02-6.90L56.02-6.90Q55.78-7.36 54.90-7.36L54.90-7.36L54.90-7.36Q54.02-7.36 52.90-6.66L52.90-6.66L52.90-5.20L53.12-0.50L50.44 0L50.68-4.86L50.68-4.86Q50.60-7.54 50.24-9.66L50.24-9.66L52.66-10.18L52.66-10.18Q52.80-9.02 52.86-7.92L52.86-7.92L52.86-7.92Q53.16-8.32 53.54-8.71L53.54-8.71L53.54-8.71Q53.92-9.10 54.74-9.59L54.74-9.59L54.74-9.59Q55.56-10.08 56.47-10.08L56.47-10.08L56.47-10.08Q57.38-10.08 58-9.37L58-9.37L58-9.37Q58.62-8.66 58.62-7.44L58.62-7.44L58.50-5.20L58.72-0.40L56.02 0.10L56.26-5.06" fill="#000000" stroke="none" stroke-width="none" transform="translate(-66.6300048828125,5.59692943572998)" style="fill: rgb(0, 0, 0);"></path></g><g class="path" style="transform: matrix(1, 0, 0, 1, 0, 14.925); opacity: 0.05; transform-origin: -3.19001px -0.593071px; animation: 1s linear 0.2475s 1 normal forwards running float-btt-in-4244aed0-704d-4bb3-850c-fa420009c245;"><path d="M60.54-9.68L61.70-9.68L61.70-11.86L64.40-12.38L64.14-9.68L66.56-9.68L66.34-8.04L64.06-8.04L63.96-3.86L63.96-3.86Q63.96-2.92 64.14-2.61L64.14-2.61L64.14-2.61Q64.32-2.30 64.80-2.30L64.80-2.30L64.80-2.30Q65.28-2.30 66.08-2.52L66.08-2.52L66.20-1.10L66.20-1.10Q64.88 0 63.88 0L63.88 0L63.88 0Q62.88 0 62.24-0.73L62.24-0.73L62.24-0.73Q61.60-1.46 61.60-2.64L61.60-2.64L61.72-4.88L61.70-8.04L60.32-8.04L60.54-9.68" fill="#000000" stroke="none" stroke-width="none" transform="translate(-66.6300048828125,5.59692943572998)" style="fill: rgb(0, 0, 0);"></path></g><g class="path" style="transform: matrix(1, 0, 0, 1, 0, 14.925); opacity: 0.05; transform-origin: 5.53999px -2.09307px; animation: 1s linear 0.28875s 1 normal forwards running float-btt-in-4244aed0-704d-4bb3-850c-fa420009c245;"><path d="M73.86-5.06L73.86-5.06Q73.86-6.44 73.62-6.90L73.62-6.90L73.62-6.90Q73.38-7.36 72.50-7.36L72.50-7.36L72.50-7.36Q71.62-7.36 70.50-6.66L70.50-6.66L70.50-5.20L70.72-0.50L68.02 0L68.26-4.86L68.02-14.98L70.76-15.48L70.50-10.30L70.50-7.96L70.50-7.96Q70.80-8.36 71.18-8.74L71.18-8.74L71.18-8.74Q71.56-9.12 72.36-9.60L72.36-9.60L72.36-9.60Q73.16-10.08 74.07-10.08L74.07-10.08L74.07-10.08Q74.98-10.08 75.60-9.37L75.60-9.37L75.60-9.37Q76.22-8.66 76.22-7.44L76.22-7.44L76.10-5.20L76.32-0.40L73.62 0.10L73.86-5.06" fill="#000000" stroke="none" stroke-width="none" transform="translate(-66.6300048828125,5.59692943572998)" style="fill: rgb(0, 0, 0);"></path></g><g class="path" style="transform: matrix(1, 0, 0, 1, 0, 14.925); opacity: 0.05; transform-origin: 16.03px 0.53693px; animation: 1s linear 0.33s 1 normal forwards running float-btt-in-4244aed0-704d-4bb3-850c-fa420009c245;"><path d="M80.92 0L80.92 0L80.92 0Q79.84 0 79.17-0.71L79.17-0.71L79.17-0.71Q78.50-1.42 78.50-2.58L78.50-2.58L78.62-4.88L78.40-9.68L81.08-10.18L80.82-4.10L80.82-4.10Q80.82-3.24 81.13-2.84L81.13-2.84L81.13-2.84Q81.44-2.44 82.12-2.44L82.12-2.44L82.12-2.44Q82.80-2.44 84-3.12L84-3.12L84-4.32L83.78-9.58L86.48-10.08L86.24-5.08L86.26-3.44L86.26-3.44Q86.26-2.16 86.92-0.86L86.92-0.86L84.84 0.06L84.84 0.06Q84.18-1.24 84.04-2.02L84.04-2.02L84.04-2.02Q82.24 0 80.92 0" fill="#000000" stroke="none" stroke-width="none" transform="translate(-66.6300048828125,5.59692943572998)" style="fill: rgb(0, 0, 0);"></path></g><g class="path" style="transform: matrix(1, 0, 0, 1, 0, 14.925); opacity: 0.05; transform-origin: 24.73px 0.55693px; animation: 1s linear 0.37125s 1 normal forwards running float-btt-in-4244aed0-704d-4bb3-850c-fa420009c245;"><path d="M91.74-1.86L91.74-1.86L91.74-1.86Q92.78-1.86 92.78-2.78L92.78-2.78L92.78-2.78Q92.78-3.10 92.33-3.38L92.33-3.38L92.33-3.38Q91.88-3.66 91.23-3.94L91.23-3.94L91.23-3.94Q90.58-4.22 89.93-4.57L89.93-4.57L89.93-4.57Q89.28-4.92 88.83-5.54L88.83-5.54L88.83-5.54Q88.38-6.16 88.38-6.96L88.38-6.96L88.38-6.96Q88.38-8.30 89.56-9.30L89.56-9.30L89.56-9.30Q90.74-10.30 92.28-10.30L92.28-10.30L92.28-10.30Q93-10.30 93.69-10.13L93.69-10.13L93.69-10.13Q94.38-9.96 95.02-9.60L95.02-9.60L93.68-7.16L93.68-7.16Q93.54-7.28 93.32-7.46L93.32-7.46L93.32-7.46Q93.10-7.64 92.49-7.93L92.49-7.93L92.49-7.93Q91.88-8.22 91.41-8.22L91.41-8.22L91.41-8.22Q90.94-8.22 90.69-8.01L90.69-8.01L90.69-8.01Q90.44-7.80 90.44-7.43L90.44-7.43L90.44-7.43Q90.44-7.06 91.13-6.69L91.13-6.69L91.13-6.69Q91.82-6.32 92.64-6.01L92.64-6.01L92.64-6.01Q93.46-5.70 94.15-4.99L94.15-4.99L94.15-4.99Q94.84-4.28 94.84-3.30L94.84-3.30L94.84-3.30Q94.84-1.90 93.69-0.84L93.69-0.84L93.69-0.84Q92.54 0.22 91.04 0.22L91.04 0.22L91.04 0.22Q90.08 0.22 89.25-0.20L89.25-0.20L89.25-0.20Q88.42-0.62 88.06-1.04L88.06-1.04L87.70-1.46L89.28-3.30L89.28-3.30Q89.40-3.14 89.62-2.90L89.62-2.90L89.62-2.90Q89.84-2.66 90.49-2.26L90.49-2.26L90.49-2.26Q91.14-1.86 91.74-1.86" fill="#000000" stroke="none" stroke-width="none" transform="translate(-66.6300048828125,5.59692943572998)" style="fill: rgb(0, 0, 0);"></path></g><g class="path" style="transform: matrix(1, 0, 0, 1, 0, 14.925); opacity: 0.05; transform-origin: 31.3px 0.506929px; animation: 1s linear 0.4125s 1 normal forwards running float-btt-in-4244aed0-704d-4bb3-850c-fa420009c245;"><path d="M96.60-9.68L99.28-10.18L99.04-5.20L99.26-0.50L96.58 0L96.82-4.86L96.60-9.68" fill="#000000" stroke="none" stroke-width="none" transform="translate(-66.6300048828125,5.59692943572998)" style="fill: rgb(0, 0, 0);"></path></g><g class="path" style="transform: matrix(1, 0, 0, 1, 0, 14.925); opacity: 0.05; transform-origin: 31.39px -7.60307px; animation: 1s linear 0.45375s 1 normal forwards running float-btt-in-4244aed0-704d-4bb3-850c-fa420009c245;"><path d="M96.46-13.11L96.46-13.11L96.46-13.11Q96.46-13.78 96.98-14.31L96.98-14.31L96.98-14.31Q97.50-14.84 98.18-14.84L98.18-14.84L98.18-14.84Q98.86-14.84 99.22-14.47L99.22-14.47L99.22-14.47Q99.58-14.10 99.58-13.36L99.58-13.36L99.58-13.36Q99.58-12.62 99.07-12.09L99.07-12.09L99.07-12.09Q98.56-11.56 97.89-11.56L97.89-11.56L97.89-11.56Q97.22-11.56 96.84-12L96.84-12L96.84-12Q96.46-12.44 96.46-13.11" fill="#000000" stroke="none" stroke-width="none" transform="translate(-66.6300048828125,5.59692943572998)" style="fill: rgb(0, 0, 0);"></path></g><g class="path" style="transform: matrix(1, 0, 0, 1, 0, 14.925); opacity: 0.05; transform-origin: 38.33px 0.47693px; animation: 1s linear 0.495s 1 normal forwards running float-btt-in-4244aed0-704d-4bb3-850c-fa420009c245;"><path d="M103.48 0L103.48 0Q102.30 0 101.55-0.75L101.55-0.75L101.55-0.75Q100.80-1.50 100.80-2.77L100.80-2.77L100.80-2.77Q100.80-4.04 101.96-4.97L101.96-4.97L101.96-4.97Q103.12-5.90 104.78-5.90L104.78-5.90L106.14-5.90L106.14-6.24L106.14-6.24Q106.14-7.22 105.74-7.58L105.74-7.58L105.74-7.58Q105.34-7.94 104.24-7.94L104.24-7.94L104.24-7.94Q103.78-7.94 103.15-7.75L103.15-7.75L103.15-7.75Q102.52-7.56 101.74-7.16L101.74-7.16L101.16-8.74L101.16-8.74Q102.02-9.34 103.25-9.82L103.25-9.82L103.25-9.82Q104.48-10.30 105.28-10.30L105.28-10.30L105.28-10.30Q108.42-10.30 108.42-7.26L108.42-7.26L108.42-3.34L108.42-3.34Q108.42-2.22 109.12-0.84L109.12-0.84L107 0.06L107 0.06Q106.50-0.90 106.26-1.66L106.26-1.66L106.26-1.66Q105.16 0 103.48 0L103.48 0zM104.32-2.04L104.32-2.04L104.32-2.04Q105.12-2.04 106.14-2.86L106.14-2.86L106.14-4.20L106.14-4.20Q105.08-4.44 104.42-4.44L104.42-4.44L104.42-4.44Q103.16-4.44 103.16-3.32L103.16-3.32L103.16-3.32Q103.16-2.74 103.48-2.39L103.48-2.39L103.48-2.39Q103.80-2.04 104.32-2.04" fill="#000000" stroke="none" stroke-width="none" transform="translate(-66.6300048828125,5.59692943572998)" style="fill: rgb(0, 0, 0);"></path></g><g class="path" style="transform: matrix(1, 0, 0, 1, 0, 14.925); opacity: 0.05; transform-origin: 46.87px 0.55693px; animation: 1s linear 0.53625s 1 normal forwards running float-btt-in-4244aed0-704d-4bb3-850c-fa420009c245;"><path d="M113.88-1.86L113.88-1.86L113.88-1.86Q114.92-1.86 114.92-2.78L114.92-2.78L114.92-2.78Q114.92-3.10 114.47-3.38L114.47-3.38L114.47-3.38Q114.02-3.66 113.37-3.94L113.37-3.94L113.37-3.94Q112.72-4.22 112.07-4.57L112.07-4.57L112.07-4.57Q111.42-4.92 110.97-5.54L110.97-5.54L110.97-5.54Q110.52-6.16 110.52-6.96L110.52-6.96L110.52-6.96Q110.52-8.30 111.70-9.30L111.70-9.30L111.70-9.30Q112.88-10.30 114.42-10.30L114.42-10.30L114.42-10.30Q115.14-10.30 115.83-10.13L115.83-10.13L115.83-10.13Q116.52-9.96 117.16-9.60L117.16-9.60L115.82-7.16L115.82-7.16Q115.68-7.28 115.46-7.46L115.46-7.46L115.46-7.46Q115.24-7.64 114.63-7.93L114.63-7.93L114.63-7.93Q114.02-8.22 113.55-8.22L113.55-8.22L113.55-8.22Q113.08-8.22 112.83-8.01L112.83-8.01L112.83-8.01Q112.58-7.80 112.58-7.43L112.58-7.43L112.58-7.43Q112.58-7.06 113.27-6.69L113.27-6.69L113.27-6.69Q113.96-6.32 114.78-6.01L114.78-6.01L114.78-6.01Q115.60-5.70 116.29-4.99L116.29-4.99L116.29-4.99Q116.98-4.28 116.98-3.30L116.98-3.30L116.98-3.30Q116.98-1.90 115.83-0.84L115.83-0.84L115.83-0.84Q114.68 0.22 113.18 0.22L113.18 0.22L113.18 0.22Q112.22 0.22 111.39-0.20L111.39-0.20L111.39-0.20Q110.56-0.62 110.20-1.04L110.20-1.04L109.84-1.46L111.42-3.30L111.42-3.30Q111.54-3.14 111.76-2.90L111.76-2.90L111.76-2.90Q111.98-2.66 112.63-2.26L112.63-2.26L112.63-2.26Q113.28-1.86 113.88-1.86" fill="#000000" stroke="none" stroke-width="none" transform="translate(-66.6300048828125,5.59692943572998)" style="fill: rgb(0, 0, 0);"></path></g><g class="path" style="transform: matrix(1, 0, 0, 1, 0, 14.925); opacity: 0.05; transform-origin: 54.63px -0.593071px; animation: 1s linear 0.5775s 1 normal forwards running float-btt-in-4244aed0-704d-4bb3-850c-fa420009c245;"><path d="M118.36-9.68L119.52-9.68L119.52-11.86L122.22-12.38L121.96-9.68L124.38-9.68L124.16-8.04L121.88-8.04L121.78-3.86L121.78-3.86Q121.78-2.92 121.96-2.61L121.96-2.61L121.96-2.61Q122.14-2.30 122.62-2.30L122.62-2.30L122.62-2.30Q123.10-2.30 123.90-2.52L123.90-2.52L124.02-1.10L124.02-1.10Q122.70 0 121.70 0L121.70 0L121.70 0Q120.70 0 120.06-0.73L120.06-0.73L120.06-0.73Q119.42-1.46 119.42-2.64L119.42-2.64L119.54-4.88L119.52-8.04L118.14-8.04L118.36-9.68" fill="#000000" stroke="none" stroke-width="none" transform="translate(-66.6300048828125,5.59692943572998)" style="fill: rgb(0, 0, 0);"></path></g><g class="path" style="transform: matrix(1, 0, 0, 1, 0, 14.925); opacity: 0.05; transform-origin: 64.69px 0.486929px; animation: 1s linear 0.61875s 1 normal forwards running float-btt-in-4244aed0-704d-4bb3-850c-fa420009c245;"><path d="M133.18-0.72L128.18-5.04L133.12-9.50L134.30-8.16L131.02-5.12L134.46-2.14L133.18-0.72" fill="#000000" stroke="none" stroke-width="none" transform="translate(-66.6300048828125,5.59692943572998)" style="fill: rgb(0, 0, 0);"></path></g></g>
</g>
</g>
<style id="float-btt-in-4244aed0-704d-4bb3-850c-fa420009c245" data-anikit="">@keyframes float-btt-in-4244aed0-704d-4bb3-850c-fa420009c245
{
  0% {
    animation-timing-function: cubic-bezier(0.2242,0.7499,0.3142,0.8148);
    transform: translate(0px,14.925px) rotate(0deg) scale(1,1) skewX(0deg) skewY(0deg);
    opacity: 0.05;
  }
  100% {
    transform: translate(0px,0px) rotate(0deg) scale(1,1) skewX(0deg) skewY(0deg);
    opacity: 1;
  }
}</style></svg>