<?xml version="1.0" encoding="utf-8"?>
<svg xmlns="http://www.w3.org/2000/svg" style="margin: auto; background: none; display: block; shape-rendering: auto;" width="288" height="28" preserveAspectRatio="xMidYMid">
<style type="text/css">
  text {
    text-anchor: middle; font-size: 20px; opacity: 0;
  }
</style>
<g style="transform-origin:144px 14px;transform:scale(1)">
<g transform="translate(144,14)">
  <g transform="translate(0,0)"><g class="path" style="transform: matrix(1, 0, 0, 1, 0, 14.925); opacity: 0.05; transform-origin: -132.86px 0.696404px; animation: 1s linear 0s 1 normal forwards running float-btt-in-4244aed0-704d-4bb3-850c-fa420009c245;"><path d="M2.48-9.50L7.48-5.18L2.54-0.72L1.36-2.06L4.64-5.10L1.20-8.08L2.48-9.50" fill="#000000" stroke="none" stroke-width="none" transform="translate(-137.19998168945312,5.806404609680176)" style="fill: rgb(0, 0, 0);"></path></g><g class="path" style="transform: matrix(1, 0, 0, 1, 0, 14.925); opacity: 0.05; transform-origin: -119.85px -0.983595px; animation: 1s linear 0.020625s 1 normal forwards running float-btt-in-4244aed0-704d-4bb3-850c-fa420009c245;"><path d="M16.16-5.32L16.16-5.32L15.02-5.32L15.02-5.20L15.26 0L12.58 0L12.82-4.86L12.58-13.80L16.92-13.80L16.92-13.80Q18.84-13.80 19.98-12.76L19.98-12.76L19.98-12.76Q21.12-11.72 21.12-10L21.12-10L21.12-10Q21.12-8.70 20.45-7.63L20.45-7.63L20.45-7.63Q19.78-6.56 18.64-5.94L18.64-5.94L22.12-1.02L19.70 0.22L16.58-5.34L16.58-5.34Q16.44-5.32 16.16-5.32zM16.20-11.78L16.20-11.78L15.22-11.78L15.08-7.26L16.44-7.26L16.44-7.26Q17.44-7.26 17.99-7.92L17.99-7.92L17.99-7.92Q18.54-8.58 18.54-9.80L18.54-9.80L18.54-9.80Q18.54-11.78 16.20-11.78" fill="#000000" stroke="none" stroke-width="none" transform="translate(-137.19998168945312,5.806404609680176)" style="fill: rgb(0, 0, 0);"></path></g><g class="path" style="transform: matrix(1, 0, 0, 1, 0, 14.925); opacity: 0.05; transform-origin: -110px 0.686405px; animation: 1s linear 0.04125s 1 normal forwards running float-btt-in-4244aed0-704d-4bb3-850c-fa420009c245;"><path d="M25.72 0L25.72 0Q24.54 0 23.79-0.75L23.79-0.75L23.79-0.75Q23.04-1.50 23.04-2.77L23.04-2.77L23.04-2.77Q23.04-4.04 24.20-4.97L24.20-4.97L24.20-4.97Q25.36-5.90 27.02-5.90L27.02-5.90L28.38-5.90L28.38-6.24L28.38-6.24Q28.38-7.22 27.98-7.58L27.98-7.58L27.98-7.58Q27.58-7.94 26.48-7.94L26.48-7.94L26.48-7.94Q26.02-7.94 25.39-7.75L25.39-7.75L25.39-7.75Q24.76-7.56 23.98-7.16L23.98-7.16L23.40-8.74L23.40-8.74Q24.26-9.34 25.49-9.82L25.49-9.82L25.49-9.82Q26.72-10.30 27.52-10.30L27.52-10.30L27.52-10.30Q30.66-10.30 30.66-7.26L30.66-7.26L30.66-3.34L30.66-3.34Q30.66-2.22 31.36-0.84L31.36-0.84L29.24 0.06L29.24 0.06Q28.74-0.90 28.50-1.66L28.50-1.66L28.50-1.66Q27.40 0 25.72 0L25.72 0zM26.56-2.04L26.56-2.04L26.56-2.04Q27.36-2.04 28.38-2.86L28.38-2.86L28.38-4.20L28.38-4.20Q27.32-4.44 26.66-4.44L26.66-4.44L26.66-4.44Q25.40-4.44 25.40-3.32L25.40-3.32L25.40-3.32Q25.40-2.74 25.72-2.39L25.72-2.39L25.72-2.39Q26.04-2.04 26.56-2.04" fill="#000000" stroke="none" stroke-width="none" transform="translate(-137.19998168945312,5.806404609680176)" style="fill: rgb(0, 0, 0);"></path></g><g class="path" style="transform: matrix(1, 0, 0, 1, 0, 14.925); opacity: 0.05; transform-origin: -101.46px 0.766405px; animation: 1s linear 0.061875s 1 normal forwards running float-btt-in-4244aed0-704d-4bb3-850c-fa420009c245;"><path d="M36.12-1.86L36.12-1.86L36.12-1.86Q37.16-1.86 37.16-2.78L37.16-2.78L37.16-2.78Q37.16-3.10 36.71-3.38L36.71-3.38L36.71-3.38Q36.26-3.66 35.61-3.94L35.61-3.94L35.61-3.94Q34.96-4.22 34.31-4.57L34.31-4.57L34.31-4.57Q33.66-4.92 33.21-5.54L33.21-5.54L33.21-5.54Q32.76-6.16 32.76-6.96L32.76-6.96L32.76-6.96Q32.76-8.30 33.94-9.30L33.94-9.30L33.94-9.30Q35.12-10.30 36.66-10.30L36.66-10.30L36.66-10.30Q37.38-10.30 38.07-10.13L38.07-10.13L38.07-10.13Q38.76-9.96 39.40-9.60L39.40-9.60L38.06-7.16L38.06-7.16Q37.92-7.28 37.70-7.46L37.70-7.46L37.70-7.46Q37.48-7.64 36.87-7.93L36.87-7.93L36.87-7.93Q36.26-8.22 35.79-8.22L35.79-8.22L35.79-8.22Q35.32-8.22 35.07-8.01L35.07-8.01L35.07-8.01Q34.82-7.80 34.82-7.43L34.82-7.43L34.82-7.43Q34.82-7.06 35.51-6.69L35.51-6.69L35.51-6.69Q36.20-6.32 37.02-6.01L37.02-6.01L37.02-6.01Q37.84-5.70 38.53-4.99L38.53-4.99L38.53-4.99Q39.22-4.28 39.22-3.30L39.22-3.30L39.22-3.30Q39.22-1.90 38.07-0.84L38.07-0.84L38.07-0.84Q36.92 0.22 35.42 0.22L35.42 0.22L35.42 0.22Q34.46 0.22 33.63-0.20L33.63-0.20L33.63-0.20Q32.80-0.62 32.44-1.04L32.44-1.04L32.08-1.46L33.66-3.30L33.66-3.30Q33.78-3.14 34.00-2.90L34.00-2.90L34.00-2.90Q34.22-2.66 34.87-2.26L34.87-2.26L34.87-2.26Q35.52-1.86 36.12-1.86" fill="#000000" stroke="none" stroke-width="none" transform="translate(-137.19998168945312,5.806404609680176)" style="fill: rgb(0, 0, 0);"></path></g><g class="path" style="transform: matrix(1, 0, 0, 1, 0, 14.925); opacity: 0.05; transform-origin: -92.12px 2.8464px; animation: 1s linear 0.0825s 1 normal forwards running float-btt-in-4244aed0-704d-4bb3-850c-fa420009c245;"><path d="M46.32-10.10L46.32-10.10L46.32-10.10Q47.60-10.10 48.47-8.98L48.47-8.98L48.47-8.98Q49.34-7.86 49.34-5.96L49.34-5.96L49.34-5.96Q49.34-3.30 47.97-1.65L47.97-1.65L47.97-1.65Q46.60 0 44.56 0L44.56 0L44.56 0Q44.14 0 43.62-0.06L43.62-0.06L43.72 3.76L40.98 4.26L41.24-4.86L41.26-4.86L41.26-4.86Q41.18-7.54 40.82-9.66L40.82-9.66L43.24-10.18L43.24-10.18Q43.36-9.12 43.44-8.08L43.44-8.08L43.44-8.08Q43.48-8.18 43.85-8.63L43.85-8.63L43.85-8.63Q44.22-9.08 44.94-9.59L44.94-9.59L44.94-9.59Q45.66-10.10 46.32-10.10zM45.54-7.50L45.54-7.50L45.54-7.50Q44.48-7.50 43.48-6.92L43.48-6.92L43.48-5.20L43.56-2.34L43.56-2.34Q44.64-2.16 45.20-2.16L45.20-2.16L45.20-2.16Q47.12-2.16 47.12-4.83L47.12-4.83L47.12-4.83Q47.12-7.50 45.54-7.50" fill="#000000" stroke="none" stroke-width="none" transform="translate(-137.19998168945312,5.806404609680176)" style="fill: rgb(0, 0, 0);"></path></g><g class="path" style="transform: matrix(1, 0, 0, 1, 0, 14.925); opacity: 0.05; transform-origin: -82.04px -1.9336px; animation: 1s linear 0.103125s 1 normal forwards running float-btt-in-4244aed0-704d-4bb3-850c-fa420009c245;"><path d="M56.30-10.10L56.30-10.10L56.30-10.10Q57.64-10.10 58.48-8.94L58.48-8.94L58.48-8.94Q59.32-7.78 59.32-5.96L59.32-5.96L59.32-5.96Q59.32-3.34 57.95-1.67L57.95-1.67L57.95-1.67Q56.58 0 54.40 0L54.40 0L54.40 0Q53.40 0 51.04-0.32L51.04-0.32L51.24-4.86L51-14.98L53.74-15.48L53.48-10.32L53.48-8.16L53.48-8.16Q53.70-8.48 54.02-8.84L54.02-8.84L54.02-8.84Q54.34-9.20 55.02-9.65L55.02-9.65L55.02-9.65Q55.70-10.10 56.30-10.10zM55.52-7.50L55.52-7.50L55.52-7.50Q54.60-7.50 53.48-6.94L53.48-6.94L53.48-5.20L53.60-2.26L53.60-2.26Q54.44-2.16 55.18-2.16L55.18-2.16L55.18-2.16Q57.10-2.16 57.10-4.83L57.10-4.83L57.10-4.83Q57.10-7.50 55.52-7.50" fill="#000000" stroke="none" stroke-width="none" transform="translate(-137.19998168945312,5.806404609680176)" style="fill: rgb(0, 0, 0);"></path></g><g class="path" style="transform: matrix(1, 0, 0, 1, 0, 14.925); opacity: 0.05; transform-origin: -72.95px 0.766405px; animation: 1s linear 0.12375s 1 normal forwards running float-btt-in-4244aed0-704d-4bb3-850c-fa420009c245;"><path d="M64.58-2.04L64.58-2.04L64.58-2.04Q65.16-2.04 65.80-2.34L65.80-2.34L65.80-2.34Q66.44-2.64 66.80-2.94L66.80-2.94L67.16-3.24L68.08-2.12L68.08-2.12Q67.88-1.78 67.46-1.34L67.46-1.34L67.46-1.34Q67.04-0.90 66.61-0.59L66.61-0.59L66.61-0.59Q66.18-0.28 65.47-0.03L65.47-0.03L65.47-0.03Q64.76 0.22 64 0.22L64 0.22L64 0.22Q62.38 0.22 61.36-1.01L61.36-1.01L61.36-1.01Q60.34-2.24 60.34-4.18L60.34-4.18L60.34-4.18Q60.34-6.62 61.76-8.46L61.76-8.46L61.76-8.46Q63.18-10.30 65.08-10.30L65.08-10.30L65.08-10.30Q66.54-10.30 67.35-9.48L67.35-9.48L67.35-9.48Q68.16-8.66 68.16-7.18L68.16-7.18L68.16-7.18Q68.16-6.30 67.86-5.18L67.86-5.18L67.46-4.76L62.46-4.30L62.46-4.30Q62.80-2.04 64.58-2.04zM64.58-8.24L64.58-8.24L64.58-8.24Q63.70-8.24 63.10-7.53L63.10-7.53L63.10-7.53Q62.50-6.82 62.40-5.72L62.40-5.72L65.80-6.14L65.80-6.14Q65.86-6.60 65.86-6.90L65.86-6.90L65.86-6.90Q65.86-8.24 64.58-8.24" fill="#000000" stroke="none" stroke-width="none" transform="translate(-137.19998168945312,5.806404609680176)" style="fill: rgb(0, 0, 0);"></path></g><g class="path" style="transform: matrix(1, 0, 0, 1, 0, 14.925); opacity: 0.05; transform-origin: -64.48px 0.716404px; animation: 1s linear 0.144375s 1 normal forwards running float-btt-in-4244aed0-704d-4bb3-850c-fa420009c245;"><path d="M69.68-9.66L69.68-9.66L72.10-10.18L72.10-10.18Q72.28-8.64 72.34-7.26L72.34-7.26L72.34-7.26Q74.16-10.08 75.76-10.08L75.76-10.08L75.54-6.96L75.54-6.96Q74.38-6.96 73.71-6.75L73.71-6.75L73.71-6.75Q73.04-6.54 72.34-5.92L72.34-5.92L72.34-5.20L72.56-0.50L69.88 0L70.12-4.86L70.12-4.86Q70.04-7.54 69.68-9.66" fill="#000000" stroke="none" stroke-width="none" transform="translate(-137.19998168945312,5.806404609680176)" style="fill: rgb(0, 0, 0);"></path></g><g class="path" style="transform: matrix(1, 0, 0, 1, 0, 14.925); opacity: 0.05; transform-origin: -57.36px 0.716404px; animation: 1s linear 0.165s 1 normal forwards running float-btt-in-4244aed0-704d-4bb3-850c-fa420009c245;"><path d="M76.80-9.66L76.80-9.66L79.22-10.18L79.22-10.18Q79.40-8.64 79.46-7.26L79.46-7.26L79.46-7.26Q81.28-10.08 82.88-10.08L82.88-10.08L82.66-6.96L82.66-6.96Q81.50-6.96 80.83-6.75L80.83-6.75L80.83-6.75Q80.16-6.54 79.46-5.92L79.46-5.92L79.46-5.20L79.68-0.50L77.00 0L77.24-4.86L77.24-4.86Q77.16-7.54 76.80-9.66" fill="#000000" stroke="none" stroke-width="none" transform="translate(-137.19998168945312,5.806404609680176)" style="fill: rgb(0, 0, 0);"></path></g><g class="path" style="transform: matrix(1, 0, 0, 1, 0, 14.925); opacity: 0.05; transform-origin: -49.6px 2.9164px; animation: 1s linear 0.185625s 1 normal forwards running float-btt-in-4244aed0-704d-4bb3-850c-fa420009c245;"><path d="M87.00 4.40L84.42 3.86L86.48-0.76L85.00-4.80L82.98-9.66L85.64-10.16L86.92-5.90L87.58-3.88L87.84-3.88L88.32-5.34L89.76-10.18L92.22-9.88L88.68-0.58L87.00 4.40" fill="#000000" stroke="none" stroke-width="none" transform="translate(-137.19998168945312,5.806404609680176)" style="fill: rgb(0, 0, 0);"></path></g><g class="path" style="transform: matrix(1, 0, 0, 1, 0, 14.925); opacity: 0.05; transform-origin: -35.97px -1.0936px; animation: 1s linear 0.20625s 1 normal forwards running float-btt-in-4244aed0-704d-4bb3-850c-fa420009c245;"><path d="M96.96-13.80L101.30-13.80L101.30-13.80Q103.22-13.80 104.36-12.71L104.36-12.71L104.36-12.71Q105.50-11.62 105.50-9.72L105.50-9.72L105.50-9.72Q105.50-7.82 104.06-6.47L104.06-6.47L104.06-6.47Q102.62-5.12 100.54-5.12L100.54-5.12L99.40-5.12L99.64 0L96.96 0L97.20-4.86L96.96-13.80zM100.58-11.78L100.58-11.78L99.60-11.78L99.46-7.06L100.82-7.06L100.82-7.06Q101.82-7.06 102.37-7.72L102.37-7.72L102.37-7.72Q102.92-8.38 102.92-9.60L102.92-9.60L102.92-9.60Q102.92-11.78 100.58-11.78" fill="#000000" stroke="none" stroke-width="none" transform="translate(-137.19998168945312,5.806404609680176)" style="fill: rgb(0, 0, 0);"></path></g><g class="path" style="transform: matrix(1, 0, 0, 1, 0, 14.925); opacity: 0.05; transform-origin: -29.17px 0.716404px; animation: 1s linear 0.226875s 1 normal forwards running float-btt-in-4244aed0-704d-4bb3-850c-fa420009c245;"><path d="M106.70-9.68L109.38-10.18L109.14-5.20L109.36-0.50L106.68 0L106.92-4.86L106.70-9.68" fill="#000000" stroke="none" stroke-width="none" transform="translate(-137.19998168945312,5.806404609680176)" style="fill: rgb(0, 0, 0);"></path></g><g class="path" style="transform: matrix(1, 0, 0, 1, 0, 14.925); opacity: 0.05; transform-origin: -29.08px -7.3936px; animation: 1s linear 0.2475s 1 normal forwards running float-btt-in-4244aed0-704d-4bb3-850c-fa420009c245;"><path d="M106.56-13.11L106.56-13.11L106.56-13.11Q106.56-13.78 107.08-14.31L107.08-14.31L107.08-14.31Q107.60-14.84 108.28-14.84L108.28-14.84L108.28-14.84Q108.96-14.84 109.32-14.47L109.32-14.47L109.32-14.47Q109.68-14.10 109.68-13.36L109.68-13.36L109.68-13.36Q109.68-12.62 109.17-12.09L109.17-12.09L109.17-12.09Q108.66-11.56 107.99-11.56L107.99-11.56L107.99-11.56Q107.32-11.56 106.94-12L106.94-12L106.94-12Q106.56-12.44 106.56-13.11" fill="#000000" stroke="none" stroke-width="none" transform="translate(-137.19998168945312,5.806404609680176)" style="fill: rgb(0, 0, 0);"></path></g><g class="path" style="transform: matrix(1, 0, 0, 1, 0, 14.925); opacity: 0.05; transform-origin: -23.53px -0.443596px; animation: 1s linear 0.268125s 1 normal forwards running float-btt-in-4244aed0-704d-4bb3-850c-fa420009c245;"><path d="M116.74-14.84L112.40 2.66L110.60 2.34L114.94-15.16L116.74-14.84" fill="#000000" stroke="none" stroke-width="none" transform="translate(-137.19998168945312,5.806404609680176)" style="fill: rgb(0, 0, 0);"></path></g><g class="path" style="transform: matrix(1, 0, 0, 1, 0, 14.925); opacity: 0.05; transform-origin: -14.31px -1.1036px; animation: 1s linear 0.28875s 1 normal forwards running float-btt-in-4244aed0-704d-4bb3-850c-fa420009c245;"><path d="M129.02-0.34L126.14 0.10L125.16-3.80L120.38-3.80L119.32 0L116.76-0.20L118.52-5.06L121.20-13.66L124.78-13.92L127.36-5.36L129.02-0.34zM124.56-5.92L122.98-11.32L122.72-11.32L121.00-5.92L124.56-5.92" fill="#000000" stroke="none" stroke-width="none" transform="translate(-137.19998168945312,5.806404609680176)" style="fill: rgb(0, 0, 0);"></path></g><g class="path" style="transform: matrix(1, 0, 0, 1, 0, 14.925); opacity: 0.05; transform-origin: -3.89999px 0.716404px; animation: 1s linear 0.309375s 1 normal forwards running float-btt-in-4244aed0-704d-4bb3-850c-fa420009c245;"><path d="M130.26-9.66L130.26-9.66L132.68-10.18L132.68-10.18Q132.86-8.64 132.92-7.26L132.92-7.26L132.92-7.26Q134.74-10.08 136.34-10.08L136.34-10.08L136.12-6.96L136.12-6.96Q134.96-6.96 134.29-6.75L134.29-6.75L134.29-6.75Q133.62-6.54 132.92-5.92L132.92-5.92L132.92-5.20L133.14-0.50L130.46 0L130.70-4.86L130.70-4.86Q130.62-7.54 130.26-9.66" fill="#000000" stroke="none" stroke-width="none" transform="translate(-137.19998168945312,5.806404609680176)" style="fill: rgb(0, 0, 0);"></path></g><g class="path" style="transform: matrix(1, 0, 0, 1, 0, 14.925); opacity: 0.05; transform-origin: 4.12002px -1.8236px; animation: 1s linear 0.33s 1 normal forwards running float-btt-in-4244aed0-704d-4bb3-850c-fa420009c245;"><path d="M142.88-1.96L142.88-1.96L142.88-1.96Q141.32 0 140.18 0L140.18 0L140.18 0Q138.76 0 137.85-1.16L137.85-1.16L137.85-1.16Q136.94-2.32 136.94-4.14L136.94-4.14L136.94-4.14Q136.94-6.64 138.33-8.36L138.33-8.36L138.33-8.36Q139.72-10.08 141.74-10.08L141.74-10.08L142.86-9.92L142.86-10.30L142.62-14.98L145.36-15.48L145.10-5.20L145.10-3.44L145.10-3.44Q145.10-2.24 145.70-0.68L145.70-0.68L143.54 0.22L143.54 0.22Q142.96-0.98 142.88-1.96zM139.18-5.18L139.18-5.18L139.18-5.18Q139.18-3.90 139.65-3.18L139.65-3.18L139.65-3.18Q140.12-2.46 141.01-2.46L141.01-2.46L141.01-2.46Q141.90-2.46 142.86-3.18L142.86-3.18L142.86-7.50L142.86-7.50Q141.66-7.74 141.08-7.74L141.08-7.74L141.08-7.74Q140.18-7.74 139.68-7.10L139.68-7.10L139.68-7.10Q139.18-6.46 139.18-5.18" fill="#000000" stroke="none" stroke-width="none" transform="translate(-137.19998168945312,5.806404609680176)" style="fill: rgb(0, 0, 0);"></path></g><g class="path" style="transform: matrix(1, 0, 0, 1, 0, 14.925); opacity: 0.05; transform-origin: 14.58px 0.746405px; animation: 1s linear 0.350625s 1 normal forwards running float-btt-in-4244aed0-704d-4bb3-850c-fa420009c245;"><path d="M150.04 0L150.04 0L150.04 0Q148.96 0 148.29-0.71L148.29-0.71L148.29-0.71Q147.62-1.42 147.62-2.58L147.62-2.58L147.74-4.88L147.52-9.68L150.20-10.18L149.94-4.10L149.94-4.10Q149.94-3.24 150.25-2.84L150.25-2.84L150.25-2.84Q150.56-2.44 151.24-2.44L151.24-2.44L151.24-2.44Q151.92-2.44 153.12-3.12L153.12-3.12L153.12-4.32L152.90-9.58L155.60-10.08L155.36-5.08L155.38-3.44L155.38-3.44Q155.38-2.16 156.04-0.86L156.04-0.86L153.96 0.06L153.96 0.06Q153.30-1.24 153.16-2.02L153.16-2.02L153.16-2.02Q151.36 0 150.04 0" fill="#000000" stroke="none" stroke-width="none" transform="translate(-137.19998168945312,5.806404609680176)" style="fill: rgb(0, 0, 0);"></path></g><g class="path" style="transform: matrix(1, 0, 0, 1, 0, 14.925); opacity: 0.05; transform-origin: 21.97px 0.716404px; animation: 1s linear 0.37125s 1 normal forwards running float-btt-in-4244aed0-704d-4bb3-850c-fa420009c245;"><path d="M157.84-9.68L160.52-10.18L160.28-5.20L160.50-0.50L157.82 0L158.06-4.86L157.84-9.68" fill="#000000" stroke="none" stroke-width="none" transform="translate(-137.19998168945312,5.806404609680176)" style="fill: rgb(0, 0, 0);"></path></g><g class="path" style="transform: matrix(1, 0, 0, 1, 0, 14.925); opacity: 0.05; transform-origin: 22.06px -7.3936px; animation: 1s linear 0.391875s 1 normal forwards running float-btt-in-4244aed0-704d-4bb3-850c-fa420009c245;"><path d="M157.70-13.11L157.70-13.11L157.70-13.11Q157.70-13.78 158.22-14.31L158.22-14.31L158.22-14.31Q158.74-14.84 159.42-14.84L159.42-14.84L159.42-14.84Q160.10-14.84 160.46-14.47L160.46-14.47L160.46-14.47Q160.82-14.10 160.82-13.36L160.82-13.36L160.82-13.36Q160.82-12.62 160.31-12.09L160.31-12.09L160.31-12.09Q159.80-11.56 159.13-11.56L159.13-11.56L159.13-11.56Q158.46-11.56 158.08-12L158.08-12L158.08-12Q157.70-12.44 157.70-13.11" fill="#000000" stroke="none" stroke-width="none" transform="translate(-137.19998168945312,5.806404609680176)" style="fill: rgb(0, 0, 0);"></path></g><g class="path" style="transform: matrix(1, 0, 0, 1, 0, 14.925); opacity: 0.05; transform-origin: 29.54px 0.766405px; animation: 1s linear 0.4125s 1 normal forwards running float-btt-in-4244aed0-704d-4bb3-850c-fa420009c245;"><path d="M168.52-5.06L168.52-5.06Q168.52-6.44 168.28-6.90L168.28-6.90L168.28-6.90Q168.04-7.36 167.16-7.36L167.16-7.36L167.16-7.36Q166.28-7.36 165.16-6.66L165.16-6.66L165.16-5.20L165.38-0.50L162.70 0L162.94-4.86L162.94-4.86Q162.86-7.54 162.50-9.66L162.50-9.66L164.92-10.18L164.92-10.18Q165.06-9.02 165.12-7.92L165.12-7.92L165.12-7.92Q165.42-8.32 165.80-8.71L165.80-8.71L165.80-8.71Q166.18-9.10 167-9.59L167-9.59L167-9.59Q167.82-10.08 168.73-10.08L168.73-10.08L168.73-10.08Q169.64-10.08 170.26-9.37L170.26-9.37L170.26-9.37Q170.88-8.66 170.88-7.44L170.88-7.44L170.76-5.20L170.98-0.40L168.28 0.10L168.52-5.06" fill="#000000" stroke="none" stroke-width="none" transform="translate(-137.19998168945312,5.806404609680176)" style="fill: rgb(0, 0, 0);"></path></g><g class="path" style="transform: matrix(1, 0, 0, 1, 0, 14.925); opacity: 0.05; transform-origin: 39.64px 0.766405px; animation: 1s linear 0.433125s 1 normal forwards running float-btt-in-4244aed0-704d-4bb3-850c-fa420009c245;"><path d="M172.58-4.18L172.58-4.18Q172.58-6.74 173.96-8.52L173.96-8.52L173.96-8.52Q175.34-10.30 177.19-10.30L177.19-10.30L177.19-10.30Q179.04-10.30 180.07-9.10L180.07-9.10L180.07-9.10Q181.10-7.90 181.10-5.92L181.10-5.92L181.10-5.92Q181.10-3.28 179.77-1.53L179.77-1.53L179.77-1.53Q178.44 0.22 176.42 0.22L176.42 0.22L176.42 0.22Q174.76 0.22 173.67-1.03L173.67-1.03L173.67-1.03Q172.58-2.28 172.58-4.18L172.58-4.18zM178.86-4.88L178.86-4.88L178.86-4.88Q178.86-7.78 176.88-7.78L176.88-7.78L176.88-7.78Q174.82-7.78 174.82-5.06L174.82-5.06L174.82-5.06Q174.82-3.64 175.40-2.84L175.40-2.84L175.40-2.84Q175.98-2.04 176.93-2.04L176.93-2.04L176.93-2.04Q177.88-2.04 178.37-2.77L178.37-2.77L178.37-2.77Q178.86-3.50 178.86-4.88" fill="#000000" stroke="none" stroke-width="none" transform="translate(-137.19998168945312,5.806404609680176)" style="fill: rgb(0, 0, 0);"></path></g><g class="path" style="transform: matrix(1, 0, 0, 1, 0, 14.925); opacity: 0.05; transform-origin: 54.68px -0.983595px; animation: 1s linear 0.45375s 1 normal forwards running float-btt-in-4244aed0-704d-4bb3-850c-fa420009c245;"><path d="M190.44 0.22L190.44 0.22L190.44 0.22Q189.02 0.22 186.34 0L186.34 0L186.58-4.86L186.34-13.80L191.68-13.80L191.68-13.80Q194.38-13.80 195.90-12.18L195.90-12.18L195.90-12.18Q197.42-10.56 197.42-7.68L197.42-7.68L197.42-7.68Q197.42-4.04 195.54-1.91L195.54-1.91L195.54-1.91Q193.66 0.22 190.44 0.22zM190.96-11.64L190.96-11.64L190.96-11.64Q189.64-11.64 189.10-11.62L189.10-11.62L188.90-5.20L189.04-1.96L189.04-1.96Q190.72-1.84 191.30-1.84L191.30-1.84L191.30-1.84Q192.88-1.84 193.79-3.12L193.79-3.12L193.79-3.12Q194.70-4.40 194.70-6.84L194.70-6.84L194.70-6.84Q194.70-9.28 193.81-10.46L193.81-10.46L193.81-10.46Q192.92-11.64 190.96-11.64" fill="#000000" stroke="none" stroke-width="none" transform="translate(-137.19998168945312,5.806404609680176)" style="fill: rgb(0, 0, 0);"></path></g><g class="path" style="transform: matrix(1, 0, 0, 1, 0, 14.925); opacity: 0.05; transform-origin: 65.25px 0.766405px; animation: 1s linear 0.474375s 1 normal forwards running float-btt-in-4244aed0-704d-4bb3-850c-fa420009c245;"><path d="M202.78-2.04L202.78-2.04L202.78-2.04Q203.36-2.04 204.00-2.34L204.00-2.34L204.00-2.34Q204.64-2.64 205.00-2.94L205.00-2.94L205.36-3.24L206.28-2.12L206.28-2.12Q206.08-1.78 205.66-1.34L205.66-1.34L205.66-1.34Q205.24-0.90 204.81-0.59L204.81-0.59L204.81-0.59Q204.38-0.28 203.67-0.03L203.67-0.03L203.67-0.03Q202.96 0.22 202.20 0.22L202.20 0.22L202.20 0.22Q200.58 0.22 199.56-1.01L199.56-1.01L199.56-1.01Q198.54-2.24 198.54-4.18L198.54-4.18L198.54-4.18Q198.54-6.62 199.96-8.46L199.96-8.46L199.96-8.46Q201.38-10.30 203.28-10.30L203.28-10.30L203.28-10.30Q204.74-10.30 205.55-9.48L205.55-9.48L205.55-9.48Q206.36-8.66 206.36-7.18L206.36-7.18L206.36-7.18Q206.36-6.30 206.06-5.18L206.06-5.18L205.66-4.76L200.66-4.30L200.66-4.30Q201.00-2.04 202.78-2.04zM202.78-8.24L202.78-8.24L202.78-8.24Q201.90-8.24 201.30-7.53L201.30-7.53L201.30-7.53Q200.70-6.82 200.60-5.72L200.60-5.72L204.00-6.14L204.00-6.14Q204.06-6.60 204.06-6.90L204.06-6.90L204.06-6.90Q204.06-8.24 202.78-8.24" fill="#000000" stroke="none" stroke-width="none" transform="translate(-137.19998168945312,5.806404609680176)" style="fill: rgb(0, 0, 0);"></path></g><g class="path" style="transform: matrix(1, 0, 0, 1, 0, 14.925); opacity: 0.05; transform-origin: 74.38px 0.746405px; animation: 1s linear 0.495s 1 normal forwards running float-btt-in-4244aed0-704d-4bb3-850c-fa420009c245;"><path d="M210.76-5.76L211.50-2.50L211.76-2.50L212.42-5.24L213.50-10.18L215.98-9.88L214.48-4.92L213.22-0.24L209.80 0.06L208.62-4.80L207.18-9.66L209.90-10.16L210.76-5.76" fill="#000000" stroke="none" stroke-width="none" transform="translate(-137.19998168945312,5.806404609680176)" style="fill: rgb(0, 0, 0);"></path></g><g class="path" style="transform: matrix(1, 0, 0, 1, 0, 14.925); opacity: 0.05; transform-origin: 83.37px 0.766405px; animation: 1s linear 0.515625s 1 normal forwards running float-btt-in-4244aed0-704d-4bb3-850c-fa420009c245;"><path d="M220.90-2.04L220.90-2.04L220.90-2.04Q221.48-2.04 222.12-2.34L222.12-2.34L222.12-2.34Q222.76-2.64 223.12-2.94L223.12-2.94L223.48-3.24L224.40-2.12L224.40-2.12Q224.20-1.78 223.78-1.34L223.78-1.34L223.78-1.34Q223.36-0.90 222.93-0.59L222.93-0.59L222.93-0.59Q222.50-0.28 221.79-0.03L221.79-0.03L221.79-0.03Q221.08 0.22 220.32 0.22L220.32 0.22L220.32 0.22Q218.70 0.22 217.68-1.01L217.68-1.01L217.68-1.01Q216.66-2.24 216.66-4.18L216.66-4.18L216.66-4.18Q216.66-6.62 218.08-8.46L218.08-8.46L218.08-8.46Q219.50-10.30 221.40-10.30L221.40-10.30L221.40-10.30Q222.86-10.30 223.67-9.48L223.67-9.48L223.67-9.48Q224.48-8.66 224.48-7.18L224.48-7.18L224.48-7.18Q224.48-6.30 224.18-5.18L224.18-5.18L223.78-4.76L218.78-4.30L218.78-4.30Q219.12-2.04 220.90-2.04zM220.90-8.24L220.90-8.24L220.90-8.24Q220.02-8.24 219.42-7.53L219.42-7.53L219.42-7.53Q218.82-6.82 218.72-5.72L218.72-5.72L222.12-6.14L222.12-6.14Q222.18-6.60 222.18-6.90L222.18-6.90L222.18-6.90Q222.18-8.24 220.90-8.24" fill="#000000" stroke="none" stroke-width="none" transform="translate(-137.19998168945312,5.806404609680176)" style="fill: rgb(0, 0, 0);"></path></g><g class="path" style="transform: matrix(1, 0, 0, 1, 0, 14.925); opacity: 0.05; transform-origin: 90.39px -1.9336px; animation: 1s linear 0.53625s 1 normal forwards running float-btt-in-4244aed0-704d-4bb3-850c-fa420009c245;"><path d="M226.22-14.98L228.96-15.48L228.70-5.20L228.92-0.50L226.22 0L226.46-4.86L226.22-14.98" fill="#000000" stroke="none" stroke-width="none" transform="translate(-137.19998168945312,5.806404609680176)" style="fill: rgb(0, 0, 0);"></path></g><g class="path" style="transform: matrix(1, 0, 0, 1, 0, 14.925); opacity: 0.05; transform-origin: 97.74px 0.766405px; animation: 1s linear 0.556875s 1 normal forwards running float-btt-in-4244aed0-704d-4bb3-850c-fa420009c245;"><path d="M230.68-4.18L230.68-4.18Q230.68-6.74 232.06-8.52L232.06-8.52L232.06-8.52Q233.44-10.30 235.29-10.30L235.29-10.30L235.29-10.30Q237.14-10.30 238.17-9.10L238.17-9.10L238.17-9.10Q239.20-7.90 239.20-5.92L239.20-5.92L239.20-5.92Q239.20-3.28 237.87-1.53L237.87-1.53L237.87-1.53Q236.54 0.22 234.52 0.22L234.52 0.22L234.52 0.22Q232.86 0.22 231.77-1.03L231.77-1.03L231.77-1.03Q230.68-2.28 230.68-4.18L230.68-4.18zM236.96-4.88L236.96-4.88L236.96-4.88Q236.96-7.78 234.98-7.78L234.98-7.78L234.98-7.78Q232.92-7.78 232.92-5.06L232.92-5.06L232.92-5.06Q232.92-3.64 233.50-2.84L233.50-2.84L233.50-2.84Q234.08-2.04 235.03-2.04L235.03-2.04L235.03-2.04Q235.98-2.04 236.47-2.77L236.47-2.77L236.47-2.77Q236.96-3.50 236.96-4.88" fill="#000000" stroke="none" stroke-width="none" transform="translate(-137.19998168945312,5.806404609680176)" style="fill: rgb(0, 0, 0);"></path></g><g class="path" style="transform: matrix(1, 0, 0, 1, 0, 14.925); opacity: 0.05; transform-origin: 107.82px 2.8464px; animation: 1s linear 0.5775s 1 normal forwards running float-btt-in-4244aed0-704d-4bb3-850c-fa420009c245;"><path d="M246.26-10.10L246.26-10.10L246.26-10.10Q247.54-10.10 248.41-8.98L248.41-8.98L248.41-8.98Q249.28-7.86 249.28-5.96L249.28-5.96L249.28-5.96Q249.28-3.30 247.91-1.65L247.91-1.65L247.91-1.65Q246.54 0 244.50 0L244.50 0L244.50 0Q244.08 0 243.56-0.06L243.56-0.06L243.66 3.76L240.92 4.26L241.18-4.86L241.20-4.86L241.20-4.86Q241.12-7.54 240.76-9.66L240.76-9.66L243.18-10.18L243.18-10.18Q243.30-9.12 243.38-8.08L243.38-8.08L243.38-8.08Q243.42-8.18 243.79-8.63L243.79-8.63L243.79-8.63Q244.16-9.08 244.88-9.59L244.88-9.59L244.88-9.59Q245.60-10.10 246.26-10.10zM245.48-7.50L245.48-7.50L245.48-7.50Q244.42-7.50 243.42-6.92L243.42-6.92L243.42-5.20L243.50-2.34L243.50-2.34Q244.58-2.16 245.14-2.16L245.14-2.16L245.14-2.16Q247.06-2.16 247.06-4.83L247.06-4.83L247.06-4.83Q247.06-7.50 245.48-7.50" fill="#000000" stroke="none" stroke-width="none" transform="translate(-137.19998168945312,5.806404609680176)" style="fill: rgb(0, 0, 0);"></path></g><g class="path" style="transform: matrix(1, 0, 0, 1, 0, 14.925); opacity: 0.05; transform-origin: 117.01px 0.766405px; animation: 1s linear 0.598125s 1 normal forwards running float-btt-in-4244aed0-704d-4bb3-850c-fa420009c245;"><path d="M254.54-2.04L254.54-2.04L254.54-2.04Q255.12-2.04 255.76-2.34L255.76-2.34L255.76-2.34Q256.40-2.64 256.76-2.94L256.76-2.94L257.12-3.24L258.04-2.12L258.04-2.12Q257.84-1.78 257.42-1.34L257.42-1.34L257.42-1.34Q257-0.90 256.57-0.59L256.57-0.59L256.57-0.59Q256.14-0.28 255.43-0.03L255.43-0.03L255.43-0.03Q254.72 0.22 253.96 0.22L253.96 0.22L253.96 0.22Q252.34 0.22 251.32-1.01L251.32-1.01L251.32-1.01Q250.30-2.24 250.30-4.18L250.30-4.18L250.30-4.18Q250.30-6.62 251.72-8.46L251.72-8.46L251.72-8.46Q253.14-10.30 255.04-10.30L255.04-10.30L255.04-10.30Q256.50-10.30 257.31-9.48L257.31-9.48L257.31-9.48Q258.12-8.66 258.12-7.18L258.12-7.18L258.12-7.18Q258.12-6.30 257.82-5.18L257.82-5.18L257.42-4.76L252.42-4.30L252.42-4.30Q252.76-2.04 254.54-2.04zM254.54-8.24L254.54-8.24L254.54-8.24Q253.66-8.24 253.06-7.53L253.06-7.53L253.06-7.53Q252.46-6.82 252.36-5.72L252.36-5.72L255.76-6.14L255.76-6.14Q255.82-6.60 255.82-6.90L255.82-6.90L255.82-6.90Q255.82-8.24 254.54-8.24" fill="#000000" stroke="none" stroke-width="none" transform="translate(-137.19998168945312,5.806404609680176)" style="fill: rgb(0, 0, 0);"></path></g><g class="path" style="transform: matrix(1, 0, 0, 1, 0, 14.925); opacity: 0.05; transform-origin: 125.48px 0.716404px; animation: 1s linear 0.61875s 1 normal forwards running float-btt-in-4244aed0-704d-4bb3-850c-fa420009c245;"><path d="M259.64-9.66L259.64-9.66L262.06-10.18L262.06-10.18Q262.24-8.64 262.30-7.26L262.30-7.26L262.30-7.26Q264.12-10.08 265.72-10.08L265.72-10.08L265.50-6.96L265.50-6.96Q264.34-6.96 263.67-6.75L263.67-6.75L263.67-6.75Q263-6.54 262.30-5.92L262.30-5.92L262.30-5.20L262.52-0.50L259.84 0L260.08-4.86L260.08-4.86Q260-7.54 259.64-9.66" fill="#000000" stroke="none" stroke-width="none" transform="translate(-137.19998168945312,5.806404609680176)" style="fill: rgb(0, 0, 0);"></path></g><g class="path" style="transform: matrix(1, 0, 0, 1, 0, 14.925); opacity: 0.05; transform-origin: 135.26px 0.696404px; animation: 1s linear 0.639375s 1 normal forwards running float-btt-in-4244aed0-704d-4bb3-850c-fa420009c245;"><path d="M274.32-0.72L269.32-5.04L274.26-9.50L275.44-8.16L272.16-5.12L275.60-2.14L274.32-0.72" fill="#000000" stroke="none" stroke-width="none" transform="translate(-137.19998168945312,5.806404609680176)" style="fill: rgb(0, 0, 0);"></path></g></g>
</g>
</g>
<style id="float-btt-in-4244aed0-704d-4bb3-850c-fa420009c245" data-anikit="">@keyframes float-btt-in-4244aed0-704d-4bb3-850c-fa420009c245
{
  0% {
    animation-timing-function: cubic-bezier(0.2242,0.7499,0.3142,0.8148);
    transform: translate(0px,14.925px) rotate(0deg) scale(1,1) skewX(0deg) skewY(0deg);
    opacity: 0.05;
  }
  100% {
    transform: translate(0px,0px) rotate(0deg) scale(1,1) skewX(0deg) skewY(0deg);
    opacity: 1;
  }
}</style></svg>